<?xml version='1.0' encoding='utf-8'?>
<svg xmlns="http://www.w3.org/2000/svg" width="250" height="250" viewBox="0.000000 0.000000 66.145832 66.145835"><path id="face_1" d="M 26.504365 61.761925 L 27.219392 61.463283 L 28.014317 60.998480 L 28.858922 60.387345 L 29.722987 59.649711 L 34.524053 55.468442 L 38.751705 51.876615 L 39.184422 51.641352 L 39.697847 51.425480 L 40.323807 51.253918 L 41.204189 51.223296 L 41.889821 51.249278 L 42.980364 51.355170 L 47.852517 51.973167 L 54.424810 52.859474 L 55.299690 52.977674 L 56.055216 53.034332 L 56.697291 53.028192 L 57.231821 52.957999 L 57.664711 52.822496 L 58.001866 52.620429 L 58.249190 52.350542 L 58.412588 52.011579 L 58.466021 51.647535 L 58.451848 51.144988 L 58.376186 50.576821 L 58.245149 50.015917 L 57.932343 49.102549 L 57.391468 47.877397 L 54.870632 42.899867 L 52.913221 39.062060 L 52.094280 37.332038 L 51.930771 36.738760 L 51.816677 36.132430 L 51.749894 35.498623 L 51.728319 34.822915 L 51.775006 33.834785 L 51.912908 32.873486 L 52.139974 31.949471 L 52.454156 31.073190 L 54.929796 26.403458 L 57.226397 22.078421 L 57.709667 21.034687 L 58.009059 20.215366 L 58.178905 19.553971 L 58.266402 18.900461 L 58.267060 18.317808 L 58.176387 17.868985 L 58.015800 17.548839 L 57.791619 17.272646 L 57.497124 17.037489 L 57.125592 16.840452 L 56.670306 16.678617 L 56.124543 16.549067 L 54.734708 16.375157 L 52.226691 16.325634 L 47.082291 16.308452 L 41.468186 16.292427 L 40.349005 16.262432 L 39.857005 16.211071 L 39.117074 16.002519 L 38.498084 15.696598 L 36.901984 14.184076 L 33.486780 10.806683 L 30.305456 7.649885 L 28.411955 5.858638 L 27.792413 5.336958 L 27.307958 4.990899 L 26.896299 4.765206 L 26.495147 4.604624 L 26.025915 4.483410 L 25.598584 4.466562 L 25.210142 4.556362 L 24.857577 4.755088 L 24.537875 5.065020 L 24.248025 5.488438 L 23.985013 6.027620 L 23.745827 6.684847 L 23.527757 7.453347 L 23.265173 8.654620 L 22.195218 14.402254 L 21.367033 18.832543 L 21.142838 19.896311 L 21.007523 20.382410 L 20.621475 21.111764 L 20.062750 21.904902 L 19.418745 22.650045 L 18.776855 23.235414 L 16.914982 24.336367 L 12.940437 26.599184 L 7.294368 29.793326 L 6.445691 30.432794 L 6.049030 30.791051 L 5.778846 31.083059 L 5.501486 31.468690 L 5.344103 31.770908 L 5.273868 32.077526 L 5.257953 32.476355 L 5.290071 33.002542 L 5.436499 33.378391 L 5.786519 33.902416 L 6.284807 34.455634 L 6.904733 35.011630 L 7.619669 35.543990 L 13.250181 39.056913 L 17.095382 41.464639 L 18.987409 42.696500 L 19.524235 43.156389 L 20.087583 43.699585 L 20.597282 44.244770 L 20.973160 44.710627 L 21.270911 45.182464 L 21.540138 45.703790 L 21.756471 46.222413 L 21.895541 46.686139 L 22.093641 48.529775 L 22.428606 52.321118 L 22.877685 57.398919 L 23.014516 58.386740 L 23.177028 59.103082 L 23.420722 59.899317 L 23.712610 60.562205 L 24.053197 61.092152 L 24.442991 61.489561 L 24.882498 61.754838 L 25.372225 61.888388 L 25.912678 61.890615 L 26.504365 61.761925 Z M 31.369672 51.518801 L 30.680015 51.366780 L 30.084201 51.141769 L 29.653359 50.877653 L 29.522030 50.741522 L 29.458618 50.608322 L 26.575567 36.806015 L 24.432218 26.449824 L 23.731444 22.793395 L 23.765980 22.421445 L 23.931987 22.163174 L 24.176640 21.953155 L 24.483231 21.768956 L 25.598784 21.455283 L 27.742719 20.942884 L 30.049427 20.430977 L 31.653300 20.118780 L 33.551797 19.907320 L 34.467147 19.863175 L 35.358673 19.859805 L 36.225454 19.896999 L 37.066572 19.974545 L 37.881107 20.092232 L 38.668139 20.249849 L 39.426749 20.447186 L 40.156018 20.684031 L 40.855026 20.960172 L 41.522853 21.275399 L 42.158581 21.629500 L 42.761290 22.022265 L 43.330060 22.453482 L 43.863971 22.922940 L 44.449257 23.525370 L 44.942593 24.108909 L 45.500272 24.959986 L 45.991072 25.924794 L 46.393055 26.954330 L 46.684284 27.999592 L 46.786884 28.757637 L 46.835279 29.738204 L 46.825722 30.749130 L 46.754465 31.598253 L 46.543708 32.652121 L 46.227866 33.676791 L 45.812423 34.663241 L 45.302865 35.602450 L 44.704674 36.485396 L 44.023336 37.303059 L 43.264335 38.046417 L 42.433155 38.706448 L 41.895701 39.065173 L 41.219280 39.436578 L 38.297633 40.800789 L 35.980733 41.881549 L 35.469059 42.149600 L 35.305370 42.277146 L 35.923431 46.071453 L 36.560381 49.938974 L 36.511185 50.193853 L 36.367248 50.437471 L 36.134048 50.666727 L 35.817065 50.878522 L 35.421777 51.069756 L 34.953663 51.237328 L 34.418200 51.378140 L 33.820867 51.489091 L 32.565557 51.574042 L 31.906698 51.564594 L 31.369672 51.518801 Z" fill="#ff3377" fill-opacity="1" /><path id="face_4" d="M 24.636079 65.209366 L 25.613564 65.271206 L 26.645353 65.189732 L 27.680219 64.972353 L 28.666937 64.626476 L 29.532839 64.196677 L 30.423445 63.631435 L 31.404414 62.884727 L 32.541403 61.910528 L 39.134131 56.154923 L 40.079227 55.422074 L 40.817614 54.951613 L 41.394264 54.803852 L 42.208295 54.766738 L 43.317312 54.841394 L 44.778919 55.028946 L 51.253949 55.861292 L 56.487406 56.463794 L 57.521035 56.386125 L 58.540287 56.190570 L 59.103766 56.000789 L 59.616130 55.750807 L 60.076216 55.441834 L 60.482863 55.075082 L 60.834907 54.651760 L 61.131187 54.173080 L 61.370540 53.640251 L 61.551803 53.054485 L 61.671917 52.329497 L 61.733088 51.444687 L 61.730512 50.546293 L 61.659383 49.780554 L 61.472882 48.912854 L 61.096402 47.890505 L 60.342690 46.276757 L 59.024495 43.634858 L 56.537441 38.757190 L 55.808341 37.353375 L 55.386263 36.331913 L 55.206529 35.678434 L 55.176430 34.848374 L 55.210661 34.027257 L 55.359643 33.378391 L 55.638681 32.648484 L 56.140356 31.575427 L 57.811304 28.400496 L 59.215873 25.808409 L 60.175525 23.955771 L 60.799159 22.623526 L 61.195672 21.592620 L 61.397466 20.849104 L 61.483065 19.918242 L 61.510798 18.928304 L 61.480101 18.034874 L 61.393047 17.267204 L 61.251710 16.654544 L 61.055028 16.155789 L 60.794643 15.687232 L 60.473692 15.251810 L 60.095311 14.852461 L 59.662638 14.492123 L 59.178808 14.173735 L 58.646960 13.900233 L 58.070228 13.674557 L 57.288159 13.443010 L 56.818274 13.371413 L 56.148333 13.321898 L 53.765818 13.267004 L 49.255682 13.234109 L 42.966275 13.176376 L 41.963333 13.129384 L 41.497723 13.049066 L 41.010415 12.875550 L 40.555596 12.627595 L 39.761882 12.075298 L 38.256707 10.601501 L 35.053283 7.346135 L 32.982422 5.287216 L 31.451341 3.864063 L 30.435205 2.990365 L 29.909180 2.579813 L 29.110830 2.073444 L 28.325199 1.698833 L 27.548959 1.436427 L 26.778780 1.266676 L 26.172330 1.215039 L 25.449473 1.223367 L 24.762996 1.284166 L 24.265683 1.389941 L 23.538717 1.700583 L 22.890768 2.087835 L 22.316446 2.558624 L 21.810360 3.119875 L 21.367119 3.778517 L 20.981333 4.541476 L 20.647611 5.415679 L 20.360563 6.408052 L 19.516440 10.667253 L 18.388414 16.674045 L 18.123929 17.986033 L 17.855043 18.894483 L 17.700333 19.245913 L 17.522183 19.554695 L 17.065775 20.121966 L 16.652313 20.517691 L 16.147123 20.904670 L 15.477921 21.333089 L 14.572422 21.853137 L 8.998212 25.045670 L 4.521447 27.627974 L 3.877666 28.264799 L 3.239613 28.967332 L 2.736744 29.686395 L 2.352535 30.449600 L 2.070462 31.284558 L 1.951735 31.931808 L 1.912444 32.645557 L 1.952546 33.352603 L 2.071999 33.979747 L 2.259232 34.543121 L 2.496864 35.083740 L 2.787122 35.604566 L 3.132232 36.108560 L 3.534419 36.598682 L 3.995910 37.077895 L 4.518931 37.549159 L 5.105707 38.015436 L 6.828097 39.141635 L 10.100698 41.197643 L 15.030273 44.259748 L 16.033618 44.927067 L 16.894732 45.589042 L 17.589258 46.225346 L 18.092837 46.815652 L 18.439177 47.434940 L 18.692916 48.241428 L 18.879124 49.343899 L 19.022872 50.851135 L 19.189998 52.842622 L 19.356435 55.114414 L 19.512491 57.210067 L 19.721161 58.768995 L 20.005324 60.156478 L 20.382896 61.376325 L 20.854343 62.429150 L 21.125417 62.893120 L 21.420134 63.315564 L 21.738554 63.696558 L 22.080736 64.036180 L 22.446737 64.334505 L 22.836616 64.591611 L 23.250431 64.807573 L 23.688241 64.982469 L 24.150104 65.116374 L 24.636079 65.209366 Z M 24.919515 64.419045 L 24.293019 64.289925 L 23.710548 64.081410 L 23.171948 63.793365 L 22.677060 63.425654 L 22.225727 62.978142 L 21.817794 62.450695 L 21.453103 61.843177 L 21.131497 61.155452 L 20.885241 60.474177 L 20.700303 59.584549 L 20.506089 58.031835 L 20.232009 55.361307 L 19.723287 49.982508 L 19.553082 48.465508 L 19.425051 47.859338 L 19.258657 47.328856 L 19.046594 46.854660 L 18.781552 46.417353 L 18.456225 45.997533 L 18.063304 45.575802 L 17.380683 44.939003 L 16.374701 44.202250 L 14.439526 42.957354 L 10.969324 40.796127 L 6.225290 37.824896 L 5.580169 37.381122 L 5.013016 36.941265 L 4.518697 36.499394 L 4.092081 36.049581 L 3.728033 35.585894 L 3.421423 35.102404 L 3.167117 34.593180 L 2.959982 34.052293 L 2.785128 33.376697 L 2.709768 32.707273 L 2.733307 32.046261 L 2.855150 31.395905 L 3.074703 30.758447 L 3.391372 30.136129 L 3.804561 29.531194 L 4.313678 28.945885 L 4.876336 28.407203 L 5.336645 28.080109 L 6.113536 27.595764 L 15.345862 22.304604 L 16.651054 21.481291 L 17.172280 21.080090 L 17.613449 20.678318 L 17.980202 20.270322 L 18.278181 19.850446 L 18.513029 19.413037 L 18.690387 18.952438 L 18.818496 18.509580 L 19.002792 17.648212 L 20.056981 12.063646 L 20.997952 7.226983 L 21.277063 6.059504 L 21.528861 5.262622 L 21.829064 4.563848 L 22.194090 3.942102 L 22.619640 3.400885 L 23.101417 2.943695 L 23.635122 2.574032 L 24.216459 2.295395 L 24.841130 2.111284 L 25.504836 2.025198 L 26.321881 2.045036 L 27.129875 2.191743 L 27.931956 2.466139 L 28.731257 2.869045 L 29.513903 3.398568 L 30.571631 4.310579 L 32.251892 5.925780 L 34.902134 8.564872 L 38.262967 11.896759 L 39.190714 12.780697 L 39.636427 13.162475 L 40.011614 13.380910 L 40.409452 13.560256 L 41.404640 13.853059 L 41.891581 13.931971 L 42.924084 13.978397 L 49.289091 14.035377 L 53.751719 14.065861 L 56.071235 14.112262 L 57.121805 14.212657 L 57.777591 14.405124 L 58.305519 14.617776 L 58.790926 14.885734 L 59.229713 15.204609 L 59.617784 15.570008 L 59.951039 15.977542 L 60.225381 16.422818 L 60.436713 16.901447 L 60.580936 17.409036 L 60.654694 18.092418 L 60.680509 19.036682 L 60.657927 19.977284 L 60.586492 20.649679 L 60.275721 21.719685 L 59.705992 23.062027 L 58.779528 24.883456 L 57.398552 27.390727 L 56.367148 29.261966 L 55.562614 30.818273 L 54.968471 32.113027 L 54.568244 33.199608 L 54.345455 34.131398 L 54.283627 34.961776 L 54.366283 35.744122 L 54.576948 36.531817 L 55.080156 37.703954 L 55.832694 39.151282 L 58.275618 43.971555 L 59.705119 46.888247 L 60.433349 48.445710 L 60.676053 49.162699 L 60.822906 49.783350 L 60.894775 50.428412 L 60.912525 51.218631 L 60.882560 52.189475 L 60.758450 52.819903 L 60.530722 53.453357 L 60.230298 54.004083 L 59.855480 54.473290 L 59.404569 54.862189 L 58.875868 55.171992 L 58.267678 55.403909 L 57.578303 55.559152 L 56.806044 55.638932 L 56.277054 55.638350 L 55.387478 55.562425 L 51.093158 55.032348 L 44.678687 54.178115 L 43.313676 54.006368 L 42.072811 53.962593 L 40.870097 53.958148 L 40.468907 54.175860 L 39.963963 54.498961 L 39.138655 55.149481 L 35.354474 58.401502 L 32.341021 61.007504 L 30.535517 62.506236 L 29.425940 63.300444 L 28.500271 63.792872 L 27.628124 64.128160 L 26.691656 64.352848 L 25.764305 64.454092 L 24.919511 64.419051 L 24.919515 64.419045 Z" fill="#ff3377" fill-opacity="1" /><path id="face_5" d="M 35.129858 35.384689 L 35.351594 35.275305 L 35.579745 35.100634 L 36.420771 34.227942 L 37.308131 33.338153 L 37.783688 33.289774 L 38.834155 33.275420 L 39.745506 33.267959 L 40.298959 33.222279 L 40.610110 33.118383 L 40.794553 32.936270 L 40.870600 32.769784 L 40.899149 32.566866 L 40.879812 32.345437 L 40.812201 32.123419 L 40.169674 31.042887 L 39.659740 30.193278 L 39.520484 29.870203 L 39.453456 29.568749 L 39.454968 29.254270 L 39.521337 28.892116 L 39.833899 27.886189 L 40.065440 27.165968 L 40.199915 26.619429 L 40.218549 26.227080 L 40.178560 26.082635 L 40.102571 25.969427 L 39.988236 25.885021 L 39.833207 25.826980 L 39.391683 25.780246 L 38.759226 25.809732 L 37.917064 25.895948 L 36.450531 26.061509 L 35.448271 25.286215 L 34.534292 24.615340 L 33.897853 24.268676 L 33.660136 24.208180 L 33.463513 24.218245 L 33.298553 24.295374 L 33.155826 24.436069 L 33.031921 24.643535 L 32.945088 24.947670 L 32.814908 26.195522 L 32.731425 27.091766 L 32.661959 27.396656 L 32.549047 27.647580 L 32.373967 27.875679 L 32.117996 28.112094 L 31.288495 28.734438 L 30.600979 29.256798 L 30.259133 29.559358 L 30.132877 29.855424 L 30.120263 30.163677 L 30.217621 30.458037 L 30.421286 30.712420 L 31.716130 31.435341 L 32.662189 31.941072 L 32.962605 32.142847 L 33.177354 32.345236 L 33.328493 32.574246 L 33.438077 32.855882 L 33.620810 33.681056 L 33.778317 34.400284 L 33.937421 34.884431 L 34.121961 35.188153 L 34.355775 35.366105 L 34.553804 35.447264 L 34.734479 35.477068 L 34.919325 35.456035 L 35.129869 35.384679 L 35.129858 35.384689 Z" fill="#ff3377" fill-opacity="1" /></svg>