<?xml version='1.0' encoding='utf-8'?>
<svg xmlns="http://www.w3.org/2000/svg" width="250" height="250" viewBox="0.000000 0.000000 66.145832 66.145835"><path id="face_2" d="M 15.850882 39.001612 L 16.447224 38.818569 L 17.001629 38.562384 L 17.510335 38.236731 L 17.969580 37.845285 L 18.375601 37.391720 L 18.724638 36.879708 L 19.012927 36.312925 L 19.236708 35.695043 L 19.370909 34.955159 L 19.407368 34.050529 L 19.347517 33.095126 L 19.192790 32.202924 L 19.022311 31.383700 L 18.934029 30.615616 L 18.923271 29.825133 L 18.985366 28.938717 L 19.162047 27.669933 L 19.431276 26.416625 L 19.787785 25.191580 L 20.226302 24.007583 L 20.741559 22.877419 L 21.328286 21.813876 L 21.981213 20.829737 L 22.695072 19.937789 L 23.258185 19.299583 L 23.055704 18.971959 L 22.760245 18.573879 L 22.403379 18.226974 L 21.997003 17.936348 L 21.553014 17.707106 L 21.083309 17.544350 L 20.599784 17.453185 L 20.114337 17.438716 L 19.638864 17.506046 L 19.149783 17.648765 L 18.676058 17.843243 L 18.216402 18.090440 L 17.769524 18.391316 L 17.334137 18.746827 L 16.908950 19.157935 L 16.492677 19.625597 L 16.084026 20.150772 L 15.603746 20.775027 L 15.155925 21.281235 L 14.702137 21.709208 L 14.203957 22.098761 L 13.726411 22.416588 L 13.228575 22.695486 L 12.702668 22.938032 L 12.140909 23.146801 L 11.535518 23.324368 L 10.878713 23.473309 L 9.379742 23.695615 L 7.411818 23.919404 L 6.226020 24.096715 L 5.543667 24.281577 L 5.086076 24.528017 L 4.800079 24.772971 L 4.550504 25.066711 L 4.445522 25.253154 L 4.382079 25.449587 L 4.361583 25.663718 L 4.385438 25.903253 L 4.571832 26.489361 L 4.952512 27.269561 L 5.349434 28.039635 L 5.599010 28.626730 L 5.750871 29.170684 L 5.854648 29.811337 L 6.066955 30.925411 L 6.412020 31.990243 L 6.903778 33.041064 L 7.556165 34.113104 L 8.200443 35.000916 L 8.896202 35.834544 L 9.628612 36.601428 L 10.382842 37.289010 L 11.144062 37.884731 L 11.897442 38.376033 L 12.628150 38.750358 L 13.321356 38.995146 L 13.899006 39.096037 L 14.562867 39.130871 L 15.238354 39.099457 L 15.850882 39.001602 L 15.850882 39.001612 Z" fill="#3344aa" fill-opacity="1" /><path id="face_3" d="M 24.660641 53.746108 L 25.896624 53.513743 L 26.413685 53.371130 L 26.898956 53.196478 L 27.880625 52.707794 L 29.054615 51.961171 L 30.028522 51.236307 L 30.937958 50.435223 L 31.695361 49.641688 L 32.213166 48.939473 L 32.530288 48.303907 L 32.763561 47.621671 L 32.912961 46.893567 L 32.978465 46.120397 L 32.960048 45.302964 L 32.857687 44.442070 L 32.671359 43.538517 L 32.401039 42.593109 L 32.175590 41.916786 L 32.008918 41.612397 L 31.916505 41.572836 L 31.801446 41.594049 L 31.453600 41.775845 L 30.873360 42.051321 L 30.193228 42.312410 L 29.431055 42.510919 L 28.631692 42.530932 L 27.858031 42.448865 L 27.553105 42.352229 L 27.209596 42.196617 L 26.618503 41.841373 L 26.056525 41.411352 L 25.503678 40.850911 L 24.841472 40.083361 L 24.182368 39.245357 L 23.638827 38.473551 L 23.230734 37.928559 L 23.027485 37.740280 L 22.808872 37.599974 L 22.562972 37.501515 L 22.277865 37.438774 L 21.542338 37.395935 L 20.711356 37.439817 L 20.424058 37.514431 L 20.120615 37.641725 L 19.668439 37.890116 L 19.257207 38.195392 L 18.873346 38.569148 L 18.503280 39.022975 L 18.241453 39.327986 L 17.938231 39.588660 L 17.591262 39.805863 L 17.198193 39.980464 L 16.756669 40.113329 L 16.264339 40.205324 L 15.718847 40.257317 L 15.117842 40.270175 L 14.382578 40.302099 L 13.824816 40.421004 L 13.417916 40.636116 L 13.135241 40.956658 L 12.999393 41.282329 L 12.951718 41.662445 L 12.990069 42.090587 L 13.112295 42.560332 L 13.316249 43.065260 L 13.599782 43.598948 L 13.960743 44.154975 L 14.396985 44.726920 L 14.677902 45.042736 L 14.976408 45.294750 L 15.384271 45.548694 L 15.993262 45.870301 L 16.890120 46.354824 L 17.460475 46.766432 L 17.667612 46.985807 L 17.846402 47.236050 L 18.189975 47.894602 L 18.554746 48.757936 L 18.780614 49.520412 L 18.894847 50.306161 L 18.924715 51.239314 L 18.907920 51.947636 L 18.852911 52.488770 L 18.745164 52.952385 L 18.570151 53.428151 L 18.557560 53.511311 L 18.613493 53.574326 L 19.007639 53.684945 L 20.053218 53.828632 L 21.967561 53.869468 L 23.533846 53.845112 L 24.660641 53.746108 L 24.660641 53.746108 Z" fill="#3344aa" fill-opacity="1" /><path id="face_4" d="M 49.988705 23.739679 L 50.332131 23.500924 L 50.616382 23.171624 L 50.838779 22.762702 L 50.996642 22.285079 L 51.087292 21.749678 L 51.108050 21.167421 L 51.056235 20.549230 L 50.929169 19.906028 L 50.680041 19.135231 L 50.315869 18.313042 L 49.848069 17.456113 L 49.288057 16.581096 L 48.647251 15.704643 L 47.937066 14.843405 L 47.168919 14.014033 L 46.354227 13.233180 L 45.653431 12.625899 L 44.961277 12.080082 L 43.352950 10.985668 L 42.755774 10.554339 L 42.508104 10.311898 L 42.272011 10.021001 L 41.767462 9.202028 L 41.107926 7.913793 L 40.413910 6.595194 L 39.924069 5.813435 L 39.595455 5.502536 L 39.255059 5.319221 L 38.901361 5.262964 L 38.532842 5.333242 L 38.121839 5.553100 L 37.510167 5.985737 L 35.786075 7.412691 L 35.097036 7.982612 L 34.806355 8.174847 L 34.514759 8.320729 L 33.818404 8.519827 L 32.787129 8.672692 L 31.352407 8.907360 L 30.003096 9.239492 L 28.734158 9.671640 L 27.540557 10.206360 L 26.417255 10.846204 L 25.359214 11.593727 L 24.361395 12.451483 L 23.418763 13.422026 L 22.848337 14.122697 L 22.267904 14.925422 L 21.817297 15.626280 L 21.636350 16.021350 L 21.676579 16.220640 L 21.791423 16.456134 L 22.215967 17.004372 L 22.852006 17.603354 L 23.641563 18.190367 L 24.261087 18.562945 L 24.841808 18.832367 L 25.401602 19.005571 L 25.958342 19.089494 L 26.303247 19.108901 L 26.511600 19.081762 L 26.666728 18.978088 L 26.851956 18.767891 L 27.412597 18.155778 L 28.154024 17.421175 L 28.915440 16.717927 L 29.536046 16.199877 L 30.159590 15.760863 L 30.683465 15.480347 L 31.207129 15.316105 L 31.830039 15.225908 L 32.503050 15.130953 L 33.254596 14.964601 L 34.105962 14.721413 L 35.078431 14.395952 L 35.774380 14.192221 L 36.401267 14.110140 L 37.013938 14.147740 L 37.667242 14.303055 L 38.421488 14.579299 L 39.209615 14.953008 L 40.031729 15.424256 L 40.887936 15.993119 L 41.778343 16.659672 L 42.703055 17.423990 L 43.662179 18.286148 L 44.655821 19.246221 L 45.762750 20.395542 L 46.728325 21.484960 L 47.490243 22.440713 L 47.986201 23.189042 L 48.246284 23.553798 L 48.520389 23.784753 L 48.856051 23.893244 L 49.238862 23.921091 L 49.629516 23.869501 L 49.988705 23.739679 L 49.988705 23.739679 Z" fill="#3344aa" fill-opacity="1" /><path id="face_5" d="M 28.109674 63.157078 L 28.109674 63.157078 L 28.545823 63.202375 L 29.196355 63.207021 L 29.976427 63.128318 L 30.310986 63.033710 L 30.635937 62.887561 L 30.971814 62.678847 L 31.339150 62.396540 L 32.250329 61.567046 L 32.887960 60.971343 L 33.409210 60.536622 L 33.929615 60.174499 L 34.564711 59.796595 L 35.531480 59.198441 L 36.234600 58.681365 L 36.749966 58.222027 L 37.356758 58.736788 L 38.467673 59.579600 L 39.721818 60.368118 L 40.991050 61.028750 L 42.147225 61.487904 L 42.972157 61.701062 L 43.930507 61.832379 L 45.214038 61.898768 L 47.014513 61.917140 L 48.739178 61.897991 L 49.887247 61.811754 L 50.768705 61.615243 L 51.693534 61.265270 L 52.626390 60.819286 L 53.450691 60.313321 L 54.161558 59.753163 L 54.754114 59.144598 L 55.223481 58.493411 L 55.564783 57.805391 L 55.773141 57.086322 L 55.843677 56.341991 L 55.826152 55.913360 L 55.768733 55.507384 L 55.664158 55.107917 L 55.505164 54.698814 L 54.994864 53.787114 L 54.179726 52.643119 L 53.481327 51.677202 L 53.964747 51.336048 L 54.500104 50.945089 L 54.983153 50.467183 L 55.402577 49.915243 L 55.747059 49.302185 L 56.055942 48.582455 L 56.240755 47.894685 L 56.342788 47.012971 L 56.403327 45.711411 L 56.486416 44.143015 L 56.545292 43.753352 L 56.626397 43.521952 L 56.806401 43.270869 L 57.101260 42.979749 L 58.041978 42.271722 L 58.605354 41.832146 L 59.119623 41.305739 L 59.587870 40.688912 L 60.013182 39.978073 L 60.493547 39.146252 L 60.962925 38.554301 L 61.564386 38.056643 L 62.441002 37.507698 L 63.424300 36.876573 L 64.084988 36.358758 L 64.558456 35.780698 L 64.927086 35.123681 L 65.188668 34.405423 L 65.340993 33.643643 L 65.381852 32.856059 L 65.309036 32.060389 L 65.120336 31.274351 L 64.813542 30.515663 L 64.406912 29.797344 L 63.836536 28.891470 L 63.118920 27.699370 L 62.358288 26.292885 L 61.741707 25.154036 L 61.196796 24.360542 L 60.918789 24.053759 L 60.619788 23.785864 L 59.906921 23.303463 L 58.855335 22.779684 L 57.648465 22.333774 L 56.383742 21.996602 L 55.158594 21.799037 L 54.520761 21.735154 L 54.520761 20.844485 L 54.465370 19.919469 L 54.299497 18.976675 L 54.023590 18.017106 L 53.638098 17.041762 L 53.143470 16.051647 L 52.540155 15.047761 L 51.828600 14.031108 L 51.009256 13.002689 L 50.143068 12.056236 L 49.058723 10.983963 L 47.924485 9.945923 L 46.908616 9.102166 L 45.803916 8.211244 L 45.391505 7.828127 L 45.039728 7.448127 L 44.724092 7.042406 L 44.420104 6.582131 L 43.749094 5.382572 L 43.053728 4.169514 L 42.729357 3.696162 L 42.407649 3.297042 L 42.078944 2.961240 L 41.733584 2.677841 L 41.361910 2.435932 L 40.954261 2.224599 L 40.617742 2.084092 L 40.284680 2.000663 L 39.166868 1.928490 L 37.885078 1.953175 L 37.362792 2.032207 L 36.880338 2.169864 L 36.408285 2.376770 L 35.917202 2.663549 L 34.760225 3.519223 L 33.784155 4.272529 L 33.399374 4.526415 L 33.029957 4.723363 L 32.176804 5.021151 L 30.903867 5.315319 L 29.413181 5.666981 L 28.172439 6.044246 L 26.983382 6.516428 L 25.647753 7.152834 L 24.730988 7.636530 L 23.910608 8.122568 L 23.163643 8.630448 L 22.467124 9.179669 L 21.798082 9.789733 L 21.133546 10.480137 L 20.450548 11.270382 L 19.726118 12.179968 L 18.621819 13.611322 L 16.845658 14.717855 L 15.631096 15.504320 L 14.749830 16.171773 L 14.010696 16.882844 L 13.222534 17.800159 L 12.661068 18.456756 L 12.184255 18.926421 L 11.711419 19.279004 L 11.161884 19.584356 L 10.522078 19.845101 L 9.714864 20.062777 L 8.671027 20.252622 L 7.321348 20.429875 L 6.009363 20.598569 L 5.067635 20.772593 L 4.325720 20.991750 L 3.613174 21.295844 L 2.881456 21.727717 L 2.210679 22.283278 L 1.641564 22.923265 L 1.214829 23.608414 L 1.042225 23.986137 L 0.943846 24.322162 L 0.864061 25.412901 L 0.862815 26.379637 L 0.952211 27.162301 L 1.161252 27.909585 L 1.518944 28.770183 L 1.947211 29.868285 L 2.305296 31.134579 L 2.579617 32.198347 L 2.856165 33.064555 L 3.178608 33.853901 L 3.590615 34.687081 L 4.281767 35.916817 L 5.036468 36.988069 L 6.120190 38.235687 L 7.798404 39.994522 L 9.036807 41.270192 L 9.430942 42.851024 L 9.825076 44.479993 L 9.051386 44.917129 L 7.988639 45.500768 L 6.923049 46.178899 L 5.878382 46.931263 L 4.878403 47.737603 L 3.946877 48.577662 L 3.107570 49.431181 L 2.384249 50.277903 L 1.800678 51.097571 L 1.554635 51.549834 L 1.363996 52.034440 L 1.229873 52.539339 L 1.153376 53.052484 L 1.135616 53.561829 L 1.177703 54.055324 L 1.280747 54.520923 L 1.445860 54.946578 L 1.712564 55.395244 L 2.051664 55.797046 L 2.465090 56.153039 L 2.954769 56.464278 L 3.522629 56.731819 L 4.170600 56.956717 L 4.900609 57.140028 L 5.714585 57.282807 L 7.387739 57.349118 L 10.486534 57.375022 L 14.166072 57.341303 L 15.000389 57.275712 L 15.718114 57.154270 L 16.839203 56.936182 L 18.033218 57.166665 L 18.748878 57.292748 L 19.395567 57.356283 L 21.555470 57.352281 L 23.334717 57.345151 L 24.343044 57.391016 L 24.612653 57.456032 L 24.829384 57.554537 L 25.001768 57.704919 L 25.138335 57.925566 L 25.247616 58.234866 L 25.338141 58.651206 L 25.497044 59.878562 L 25.599390 60.517367 L 25.764825 61.089519 L 25.993837 61.595631 L 26.286916 62.036319 L 26.644550 62.412193 L 27.067229 62.723869 L 27.555441 62.971960 L 28.109674 63.157078 Z M 28.298661 62.307271 L 27.704331 62.083921 L 27.220465 61.750688 L 26.840108 61.301273 L 26.556303 60.729375 L 26.383598 60.018247 L 26.220252 58.981236 L 26.072750 58.029240 L 25.890447 57.372791 L 25.778484 57.135629 L 25.648509 56.948631 L 25.497415 56.803891 L 25.322100 56.693500 L 25.059387 56.603690 L 24.574472 56.556329 L 22.062055 56.550541 L 19.132740 56.575782 L 18.140552 56.307786 L 17.404743 56.138811 L 16.787926 56.087597 L 16.152326 56.156038 L 15.360168 56.346031 L 14.861640 56.456763 L 14.121120 56.511176 L 10.176385 56.504008 L 7.342519 56.467601 L 5.696939 56.390713 L 5.155170 56.321885 L 4.712968 56.224691 L 3.863929 55.920883 L 3.300820 55.642964 L 2.831612 55.306569 L 2.461474 54.916173 L 2.195576 54.476252 L 2.076951 54.187521 L 2.010970 53.927035 L 1.995966 53.236251 L 2.026342 52.836480 L 2.087805 52.510059 L 2.377508 51.800624 L 2.776879 51.115378 L 3.309790 50.392081 L 3.957566 49.648369 L 4.701531 48.901875 L 5.523008 48.170234 L 6.403321 47.471081 L 7.323796 46.822051 L 8.265754 46.240776 L 8.951396 45.879493 L 9.681365 45.545075 L 10.354815 45.280561 L 10.870904 45.128986 L 11.060547 45.075283 L 11.129812 44.979952 L 11.082765 44.790945 L 10.923474 44.456217 L 10.651245 43.850846 L 10.419520 43.210279 L 10.247331 42.593753 L 10.153714 42.060505 L 10.002698 41.164070 L 9.838365 40.910517 L 9.437116 40.444826 L 7.941307 38.896213 L 6.573201 37.484777 L 5.634038 36.370423 L 5.258739 35.835933 L 4.910791 35.269249 L 4.190435 33.897353 L 3.865169 33.206176 L 3.618991 32.585985 L 3.167275 31.002189 L 2.748618 29.523329 L 2.325318 28.405896 L 1.977070 27.590995 L 1.783727 26.945335 L 1.708687 26.291724 L 1.715348 25.452967 L 1.796268 24.411597 L 1.892357 24.082519 L 2.057664 23.718360 L 2.272645 23.340319 L 2.528521 22.997811 L 2.826781 22.689784 L 3.168911 22.415183 L 3.556399 22.172955 L 3.990731 21.962047 L 4.473396 21.781405 L 5.005880 21.629975 L 7.509972 21.192239 L 9.012257 20.945933 L 10.105772 20.714742 L 10.942432 20.460456 L 11.674150 20.144867 L 12.280560 19.797435 L 12.844289 19.355340 L 13.428506 18.761579 L 14.096382 17.959151 L 14.708823 17.231103 L 15.313997 16.668120 L 16.104838 16.116102 L 17.274283 15.420950 L 19.114501 14.309906 L 20.153936 12.929900 L 20.941506 11.895358 L 21.799538 10.903455 L 22.652312 10.036465 L 23.424111 9.376660 L 24.565919 8.623202 L 25.952776 7.864793 L 27.433042 7.177874 L 28.855080 6.638889 L 29.932774 6.341424 L 31.314773 6.022126 L 32.462282 5.755104 L 33.283904 5.469160 L 33.991887 5.069105 L 34.798478 4.459750 L 36.158220 3.421757 L 36.852300 3.030460 L 37.611229 2.768504 L 38.405586 2.633928 L 39.205951 2.624770 L 39.982902 2.739070 L 40.707018 2.974865 L 41.348878 3.330195 L 41.629768 3.552073 L 41.879062 3.803099 L 42.357831 4.486065 L 42.938750 5.476305 L 43.734931 6.890639 L 44.069631 7.410026 L 44.400003 7.850593 L 44.754498 8.247111 L 45.161566 8.634354 L 46.247221 9.520111 L 47.446808 10.495633 L 48.551201 11.481380 L 49.557771 12.474281 L 50.463888 13.471268 L 51.266925 14.469272 L 51.964252 15.465226 L 52.553240 16.456059 L 53.031260 17.438704 L 53.398854 18.371732 L 53.622902 19.189000 L 53.734516 20.045662 L 53.764806 21.096872 L 53.764806 22.485220 L 54.638879 22.548025 L 55.496965 22.638698 L 56.341848 22.783877 L 57.159455 22.978685 L 57.935712 23.218241 L 58.656546 23.497669 L 59.307882 23.812088 L 59.875649 24.156620 L 60.345772 24.526387 L 60.733911 24.917006 L 61.050410 25.345323 L 61.364632 25.921846 L 61.745941 26.757082 L 62.280842 27.797532 L 62.966824 28.927009 L 63.501882 29.762508 L 63.926902 30.502005 L 64.247609 31.164569 L 64.469726 31.769270 L 64.598977 32.335178 L 64.641086 32.881362 L 64.601777 33.426892 L 64.486773 33.990838 L 64.336875 34.475772 L 64.149709 34.906902 L 63.916774 35.293222 L 63.629569 35.643727 L 63.279592 35.967412 L 62.858344 36.273272 L 62.357322 36.570300 L 61.768026 36.867494 L 60.835972 37.353595 L 60.537587 37.551971 L 60.352601 37.719579 L 59.999027 38.273100 L 59.509768 39.175094 L 59.015587 40.064372 L 58.525215 40.730834 L 57.941327 41.285075 L 57.166594 41.837691 L 56.485954 42.303947 L 56.110113 42.602798 L 55.909284 42.908503 L 55.782298 43.370876 L 55.703542 44.143680 L 55.647404 45.380674 L 55.581343 46.735049 L 55.476715 47.669478 L 55.302810 48.363502 L 55.028919 48.996660 L 54.610539 49.681434 L 54.102074 50.253351 L 53.501070 50.714699 L 52.805070 51.067763 L 52.233475 51.326584 L 52.438191 51.670974 L 53.024007 52.421011 L 53.770132 53.352398 L 54.288922 54.074673 L 54.638803 54.676926 L 54.878202 55.248243 L 55.043630 55.907190 L 55.077896 56.552774 L 54.981177 57.181404 L 54.753650 57.789492 L 54.456384 58.273561 L 54.051835 58.742382 L 53.549878 59.189631 L 52.960391 59.608984 L 52.293251 59.994120 L 51.558335 60.338714 L 50.765520 60.636443 L 49.924684 60.880984 L 49.406740 60.994330 L 48.844959 61.050193 L 46.541848 61.038170 L 44.884662 60.989569 L 43.732769 60.901336 L 42.838891 60.743759 L 41.955751 60.487125 L 40.864932 60.042472 L 39.753591 59.421620 L 38.630377 58.630036 L 37.503936 57.673186 L 36.893334 57.133443 L 36.588988 56.908948 L 36.499511 56.971403 L 36.405510 57.121559 L 36.139077 57.570638 L 35.767818 57.991527 L 35.303598 58.372831 L 34.758286 58.703159 L 33.924849 59.156732 L 33.263816 59.586873 L 32.625977 60.102191 L 31.862127 60.811295 L 30.932798 61.643478 L 30.293466 62.101073 L 29.847032 62.252092 L 29.304016 62.343177 L 28.757023 62.364759 L 28.298661 62.307263 L 28.298661 62.307271 Z" fill="#3344aa" fill-opacity="1" /><path id="face_6" d="M 30.235789 41.262588 L 30.892271 40.945383 L 31.136267 40.774311 L 31.328064 40.590371 L 31.470635 40.390146 L 31.566954 40.170222 L 31.619994 39.927181 L 31.632728 39.657607 L 31.672075 39.157094 L 31.809042 38.662023 L 32.038150 38.186914 L 32.353916 37.746283 L 32.956460 36.951845 L 33.174424 36.500017 L 33.327260 35.986116 L 33.415447 35.442150 L 33.439461 34.900124 L 33.399780 34.392046 L 33.296881 33.949922 L 33.131243 33.605758 L 32.903342 33.391562 L 32.587688 33.292525 L 32.086227 33.192196 L 31.352570 33.021471 L 30.621923 32.750336 L 29.910705 32.390647 L 29.235335 31.954260 L 28.612233 31.453032 L 28.057816 30.898819 L 27.588506 30.303476 L 27.220719 29.678860 L 26.931892 29.031228 L 26.725534 28.410585 L 26.601633 27.781149 L 26.560179 27.107138 L 26.601159 26.352770 L 26.724565 25.482263 L 27.218603 23.249704 L 27.480946 22.117166 L 27.590062 21.478213 L 27.567376 21.316142 L 27.502267 21.151091 L 27.262471 20.821617 L 26.906055 20.508936 L 26.468401 20.232190 L 25.984890 20.010525 L 25.490903 19.863083 L 25.021823 19.809008 L 24.613030 19.867445 L 24.238433 20.121743 L 23.701495 20.636040 L 23.117861 21.289790 L 22.603177 21.962449 L 22.246089 22.551158 L 21.854574 23.307901 L 21.481822 24.123266 L 21.181024 24.887839 L 20.934310 25.782680 L 20.717426 26.936341 L 20.548655 28.232658 L 20.446284 29.555469 L 20.433397 30.727204 L 20.492866 31.162917 L 20.610211 31.679046 L 20.788414 32.642611 L 20.829706 33.805161 L 20.784784 34.942071 L 20.704554 35.294650 L 20.560716 35.678035 L 20.328570 36.355300 L 21.070031 36.286873 L 21.754353 36.251736 L 22.461286 36.321684 L 23.109759 36.482892 L 23.618698 36.721531 L 24.048344 37.143383 L 24.593877 37.835048 L 26.078729 39.781606 L 26.731919 40.559772 L 27.131586 40.968300 L 27.456867 41.150446 L 27.887538 41.331856 L 28.422970 41.450171 L 29.049214 41.476402 L 29.681709 41.413043 L 30.235895 41.262588 L 30.235789 41.262588 Z" fill="#3344aa" fill-opacity="1" /><path id="face_7" d="M 40.142591 42.486265 L 40.698850 42.289812 L 41.296830 42.010086 L 42.049460 41.550017 L 42.882333 40.951490 L 43.747331 40.258490 L 44.596334 39.515000 L 45.381223 38.765004 L 46.053879 38.052487 L 46.566183 37.421433 L 46.870016 36.915825 L 47.044491 36.404246 L 47.165281 35.761578 L 47.245998 34.885207 L 47.300252 33.672518 L 47.360767 32.268256 L 47.456464 31.344888 L 47.624688 30.677291 L 47.902785 30.040339 L 48.111690 29.548218 L 48.268265 29.024510 L 48.372185 28.476791 L 48.423129 27.912633 L 48.420771 27.339614 L 48.364788 26.765307 L 48.254856 26.197288 L 48.090653 25.643130 L 47.891252 25.140213 L 47.798526 25.021747 L 47.691331 24.995180 L 47.555327 25.062942 L 47.376177 25.227461 L 46.831080 25.856486 L 45.667325 27.149454 L 44.514655 28.236199 L 43.375100 29.114984 L 42.810874 29.475847 L 42.250688 29.784069 L 39.982830 30.794195 L 38.248131 31.567315 L 36.794844 32.261403 L 35.715401 32.830368 L 35.102233 33.228113 L 34.724258 33.549320 L 34.664626 35.094653 L 34.587150 36.264180 L 34.444443 37.123320 L 34.214291 37.761273 L 33.874477 38.267237 L 33.544908 38.708280 L 33.326712 39.145664 L 33.205574 39.617756 L 33.167179 40.162921 L 33.182362 40.553317 L 33.233117 40.891210 L 33.323470 41.182557 L 33.457449 41.433317 L 33.639081 41.649446 L 33.872394 41.836903 L 34.161416 42.001644 L 34.510173 42.149627 L 35.115115 42.336603 L 35.808176 42.485755 L 36.559455 42.595294 L 37.339050 42.663435 L 38.117062 42.688389 L 38.863589 42.668370 L 39.548733 42.601591 L 40.142591 42.486265 L 40.142591 42.486265 Z" fill="#3344aa" fill-opacity="1" /><path id="face_8" d="M 53.906549 40.304122 L 54.458049 40.092834 L 55.123349 39.784871 L 55.755604 39.452681 L 56.207966 39.168710 L 56.529002 38.861745 L 56.835160 38.420303 L 57.149372 37.805332 L 57.494571 36.977780 L 57.881995 36.099040 L 58.214773 35.525323 L 58.548392 35.209015 L 58.979936 34.938853 L 59.483831 34.727987 L 60.034505 34.589569 L 60.527577 34.472655 L 60.947743 34.306709 L 61.292648 34.094589 L 61.559937 33.839149 L 61.747254 33.543248 L 61.852244 33.209741 L 61.872552 32.841485 L 61.805822 32.441337 L 61.673211 32.054297 L 61.470680 31.670995 L 61.164742 31.237648 L 60.721911 30.700474 L 60.086773 29.927199 L 59.677722 29.283110 L 59.376282 28.536258 L 59.063974 27.454696 L 58.905527 27.055264 L 58.646677 26.717649 L 58.256015 26.410678 L 57.702132 26.103180 L 56.998066 25.805304 L 56.162204 25.539111 L 55.202829 25.306900 L 54.128225 25.110972 L 52.899949 24.992065 L 51.267222 24.907958 L 49.840794 24.880852 L 49.395802 24.895614 L 49.231417 24.932952 L 49.429905 25.584179 L 49.587837 26.310347 L 49.678119 27.258065 L 49.689179 28.210388 L 49.609446 28.950372 L 49.419376 29.546647 L 49.126295 30.266793 L 48.928353 30.754835 L 48.776905 31.248351 L 48.671302 31.756668 L 48.610896 32.289114 L 48.595041 32.855018 L 48.623089 33.463708 L 48.808301 34.846760 L 49.001656 35.683071 L 49.283457 36.598908 L 49.610222 37.466819 L 49.938466 38.159351 L 50.318895 38.738451 L 50.792560 39.312346 L 51.293342 39.808434 L 51.755121 40.154113 L 52.259600 40.400544 L 52.734136 40.504050 L 53.257021 40.470089 L 53.906549 40.304122 Z" fill="#3344aa" fill-opacity="1" /><path id="face_9" d="M 35.763692 50.146965 L 36.674647 49.982887 L 37.350772 49.774543 L 37.975160 49.446406 L 38.730904 48.922945 L 39.096777 48.706650 L 39.522612 48.563981 L 40.051024 48.485042 L 40.724629 48.459934 L 41.463432 48.496035 L 42.082665 48.604904 L 42.567314 48.782632 L 42.902367 49.025309 L 43.256657 49.297282 L 43.782868 49.601860 L 44.440659 49.886309 L 45.125048 50.096655 L 45.809345 50.232006 L 46.466858 50.291471 L 47.070897 50.274158 L 47.594770 50.179174 L 48.011786 50.005629 L 48.295255 49.752630 L 48.475300 49.563859 L 48.744048 49.426615 L 49.167499 49.317397 L 49.811651 49.212708 L 50.878269 49.012531 L 51.288260 48.886699 L 51.631462 48.735549 L 51.919445 48.552963 L 52.163778 48.332826 L 52.376027 48.069021 L 52.567763 47.755431 L 52.825444 47.161103 L 52.988054 46.448337 L 53.071404 45.511063 L 53.091304 44.243212 L 53.059132 42.945882 L 52.992662 42.266121 L 52.847252 41.991095 L 52.636854 41.765386 L 52.358899 41.586868 L 52.010817 41.453413 L 51.518218 41.263923 L 50.984885 40.982945 L 50.475622 40.648721 L 50.055234 40.299489 L 49.722494 39.878567 L 49.339717 39.232916 L 48.940118 38.424278 L 48.556915 37.514395 L 48.310904 36.930592 L 48.168803 36.687572 L 48.046554 36.844078 L 47.848265 37.220839 L 47.321471 38.180004 L 46.662110 39.125060 L 45.888301 40.039369 L 45.018161 40.906297 L 44.069808 41.709205 L 43.061360 42.431457 L 42.010934 43.056417 L 40.936648 43.567447 L 40.434402 43.765608 L 40.010394 43.871461 L 39.439449 43.919933 L 38.496393 43.945950 L 37.232097 43.940233 L 36.230522 43.854099 L 35.422421 43.677493 L 34.738550 43.400363 L 34.333122 43.219836 L 34.248833 43.211804 L 34.239858 43.257554 L 34.358185 43.714358 L 34.436502 44.338634 L 34.470850 45.082327 L 34.457272 45.897384 L 34.354992 47.178838 L 34.160396 48.260866 L 33.843195 49.267044 L 33.373102 50.320947 L 33.570275 50.357160 L 34.132914 50.333064 L 35.763692 50.146965 L 35.763692 50.146965 Z" fill="#3344aa" fill-opacity="1" /><path id="face_10" d="M 35.750568 31.500532 L 36.587018 31.023724 L 37.523242 30.542970 L 39.947217 29.446169 L 41.938574 28.559600 L 42.500681 28.250491 L 43.086980 27.873983 L 43.864491 27.244569 L 44.890369 26.290077 L 45.842447 25.323421 L 46.398560 24.657515 L 46.561797 24.284186 L 46.582989 24.096862 L 46.561057 23.895489 L 46.379297 23.409765 L 45.999476 22.745358 L 45.446827 21.948113 L 44.746521 21.156391 L 43.755581 20.224476 L 42.331028 19.006652 L 40.010972 17.023132 L 39.320011 16.382975 L 38.880713 15.922654 L 38.640692 15.695135 L 38.346524 15.500619 L 38.013950 15.343211 L 37.658709 15.227016 L 37.296542 15.156139 L 36.943188 15.134682 L 36.614388 15.166751 L 36.325881 15.256451 L 36.196374 15.327094 L 36.128055 15.406783 L 36.128870 15.696229 L 36.225661 16.074801 L 36.397327 16.496692 L 36.638209 16.953537 L 36.942646 17.436974 L 37.719540 18.450171 L 38.682726 19.469380 L 39.207040 20.026603 L 39.460437 20.399099 L 39.496187 20.810976 L 39.425654 21.310552 L 39.255633 21.883305 L 38.992915 22.514714 L 38.644293 23.190256 L 38.216560 23.895411 L 37.716508 24.615656 L 37.150931 25.336470 L 36.480780 26.270371 L 35.851709 27.381376 L 35.323748 28.551148 L 34.956929 29.661352 L 34.817931 30.423514 L 34.767868 31.169810 L 34.807977 31.737171 L 34.862232 31.902792 L 34.939493 31.962529 L 35.750566 31.500532 L 35.750568 31.500532 Z" fill="#3344aa" fill-opacity="1" /><path id="face_11" d="M 47.625174 58.512043 L 48.321543 58.409421 L 48.953276 58.276780 L 49.554089 58.105815 L 50.157694 57.888221 L 50.738743 57.628634 L 51.357003 57.305342 L 51.913863 56.973336 L 52.310712 56.687606 L 52.451751 56.558689 L 52.507680 56.459004 L 52.486347 56.338634 L 52.395598 56.147662 L 52.067777 55.597924 L 51.623872 54.997562 L 51.091394 54.373818 L 50.497858 53.753937 L 49.870775 53.165160 L 49.237659 52.634732 L 48.626021 52.189894 L 48.063374 51.857891 L 47.795526 51.736319 L 47.554084 51.674174 L 46.829043 51.682499 L 46.277023 51.696560 L 45.738124 51.660451 L 45.214447 51.574844 L 44.708096 51.440409 L 44.221172 51.257817 L 43.755779 51.027740 L 43.314019 50.750848 L 42.897993 50.427813 L 42.270519 49.963843 L 41.666278 49.682888 L 41.362062 49.607585 L 41.050684 49.573890 L 40.389148 49.625794 L 39.834323 49.773885 L 39.234245 50.015825 L 38.618830 50.337739 L 38.017992 50.725749 L 37.621360 51.038889 L 37.505271 51.179030 L 37.438053 51.329944 L 37.415247 51.507925 L 37.432392 51.729266 L 37.568700 52.367203 L 37.711181 52.863169 L 37.892991 53.347424 L 38.369124 54.275689 L 38.986141 55.141777 L 39.733085 55.935462 L 40.598996 56.646523 L 41.572918 57.264735 L 42.643892 57.779876 L 43.800961 58.181721 L 44.786480 58.418141 L 45.735477 58.550543 L 46.673269 58.581115 L 47.625174 58.512043 L 47.625174 58.512043 Z" fill="#3344aa" fill-opacity="1" /><path id="face_12" d="M 33.194487 31.182953 L 33.197471 30.347163 L 33.317415 29.563525 L 33.571226 28.760248 L 33.975812 27.865543 L 34.300799 27.152470 L 34.490326 26.613329 L 34.531905 26.315894 L 34.525368 26.019862 L 34.473038 25.730597 L 34.377243 25.453462 L 34.240307 25.193822 L 34.064556 24.957040 L 33.852317 24.748480 L 33.605914 24.573507 L 33.004668 24.149128 L 32.775080 23.919155 L 32.583448 23.662634 L 32.422720 23.368547 L 32.285844 23.025876 L 32.055448 22.150706 L 31.982948 21.695648 L 31.935682 21.102054 L 31.901513 19.205831 L 31.921762 17.529478 L 31.972448 16.617400 L 32.044796 16.249578 L 31.703920 16.304895 L 31.222525 16.435735 L 30.698521 16.667848 L 30.159272 16.980172 L 29.632145 17.351643 L 29.144506 17.761200 L 28.723723 18.187779 L 28.397160 18.610317 L 28.192185 19.007751 L 28.097667 19.340306 L 28.076963 19.628233 L 28.132077 19.904397 L 28.265016 20.201662 L 28.394605 20.539249 L 28.481498 20.978530 L 28.526336 21.497142 L 28.529759 22.072723 L 28.414918 23.305345 L 28.297934 23.917661 L 28.142094 24.497498 L 27.986371 25.246623 L 27.898271 26.180565 L 27.888203 27.102548 L 27.966574 27.815796 L 28.176975 28.506362 L 28.475688 29.143105 L 28.863614 29.726895 L 29.341651 30.258601 L 29.910700 30.739094 L 30.571661 31.169244 L 31.325434 31.549920 L 32.172918 31.881992 L 32.824745 32.098701 L 33.016348 32.133277 L 33.137185 32.105819 L 33.201336 32.006693 L 33.222883 31.826263 L 33.194487 31.182953 L 33.194487 31.182953 Z" fill="#3344aa" fill-opacity="1" /><path id="face_13" d="M 13.870577 53.888197 L 14.848093 53.668139 L 15.678608 53.372845 L 16.362299 53.002131 L 16.899339 52.555816 L 17.112920 52.304251 L 17.289904 52.033717 L 17.430313 51.744191 L 17.534169 51.435651 L 17.632308 50.761437 L 17.584496 50.010890 L 17.440068 49.357281 L 17.215614 48.793454 L 16.900431 48.298409 L 16.483816 47.851144 L 15.983142 47.460194 L 15.463930 47.208911 L 14.864846 47.076235 L 14.124555 47.041106 L 13.379543 47.085296 L 12.676270 47.218870 L 11.936505 47.462261 L 11.082019 47.835904 L 9.897891 48.468299 L 8.748495 49.225577 L 7.623685 50.115081 L 6.513317 51.144159 L 5.839012 51.851706 L 5.221888 52.558325 L 4.785568 53.115684 L 4.653677 53.375453 L 5.046641 53.467637 L 5.935571 53.607821 L 8.124183 53.876635 L 9.541594 54.018425 L 10.385328 54.042165 L 11.702736 54.018906 L 13.021819 53.962850 L 13.870577 53.888197 Z" fill="#3344aa" fill-opacity="1" /><path id="face_14" d="M 29.337743 59.397108 L 29.866319 58.767765 L 30.568014 58.070016 L 31.306054 57.430866 L 31.943664 56.977322 L 32.532658 56.666600 L 33.096046 56.420659 L 33.566331 56.193247 L 33.931479 55.927071 L 34.235947 55.546530 L 34.513152 55.063326 L 34.754467 54.507991 L 34.951265 53.911056 L 35.094920 53.303053 L 35.176805 52.714515 L 35.188293 52.175974 L 35.120757 51.717961 L 35.007740 51.298916 L 33.705718 51.292725 L 32.403695 51.286534 L 31.863083 51.838071 L 31.309888 52.354766 L 30.718315 52.816602 L 30.094875 53.218947 L 29.446079 53.557169 L 28.899941 53.851115 L 28.587104 54.095705 L 28.474306 54.428151 L 28.446218 54.974470 L 28.502586 55.723030 L 28.643156 56.662198 L 28.791920 57.783845 L 28.855768 58.869669 L 28.912873 59.928190 L 29.337743 59.397082 L 29.337743 59.397108 Z" fill="#3344aa" fill-opacity="1" /><path id="face_15" d="M 33.935971 22.064276 L 34.650731 21.204056 L 35.254502 20.273899 L 35.686145 19.381425 L 35.818312 18.982950 L 35.884522 18.634255 L 35.895638 18.378322 L 35.859765 18.162690 L 35.573377 17.609662 L 35.276175 17.018912 L 35.209365 16.732173 L 35.171520 16.372502 L 35.094939 15.709552 L 34.715508 15.916221 L 34.269405 16.086263 L 33.581856 16.164008 L 32.983982 16.225315 L 32.821682 16.271005 L 32.751932 16.326435 L 32.592152 17.614177 L 32.531459 18.532707 L 32.524966 19.427394 L 32.568014 20.268083 L 32.655945 21.024620 L 32.784100 21.666851 L 32.947823 22.164623 L 33.142453 22.487780 L 33.249903 22.574456 L 33.363333 22.606170 L 33.935971 22.064276 L 33.935971 22.064276 Z" fill="#3344aa" fill-opacity="1" /><path id="face_16" d="M 36.079895 25.240480 L 37.049112 23.870388 L 37.646857 23.021261 L 38.145675 22.219682 L 38.506305 21.533609 L 38.689489 21.030998 L 38.712821 20.824117 L 38.640820 20.652028 L 38.416858 20.441525 L 37.984303 20.119402 L 37.559079 19.745286 L 37.133855 19.278117 L 36.708633 18.744682 L 36.512243 19.376857 L 36.187489 20.225566 L 35.754569 21.033348 L 35.217452 21.793791 L 34.580105 22.500480 L 34.149010 22.985737 L 34.038572 23.184827 L 33.997712 23.369299 L 34.026061 23.549959 L 34.123249 23.737613 L 34.522658 24.177130 L 34.926613 24.626033 L 35.148816 25.024830 L 35.348256 25.465025 L 35.459064 25.589190 L 35.575794 25.649060 L 35.697345 25.644379 L 35.822613 25.574892 L 36.079895 25.240480 L 36.079895 25.240480 Z" fill="#3344aa" fill-opacity="1" /></svg>