<?xml version='1.0' encoding='utf-8'?>
<svg xmlns="http://www.w3.org/2000/svg" width="250" height="250" viewBox="0 0 50.0003 50.0003" fill="none"><g transform="translate(-37.9989 -19)"><path d="M 87.997,43.994 L 85.852,42.358 C 81.257,38.462999999999994 80.36800000000001,36.452999999999996 78.89800000000001,33.123999999999995 L 78.15,31.431999999999995 L 76.64,32.324999999999996 L 69.31400000000001,36.657999999999994 L 73.6,29.13 L 74.335,27.718 L 72.884,27.042 C 69.624,25.521 64.15,22.679000000000002 60.424,19.0 L 59.833,21.026 L 54.286,38.701 L 47.646,36.45 L 46.023,35.900000000000006 L 45.636,37.554 C 44.21,43.644000000000005 41.93,48.584 38.669000000000004,52.656000000000006 L 37.999,53.49300000000001 L 38.561,54.40500000000001 L 46.919,67.95700000000001 C 46.919,67.95700000000001 47.751,68.18700000000001 48.108999999999995,68.25900000000001 C 49.07299999999999,68.45400000000001 51.898999999999994,69.07900000000001 54.242999999999995,68.99200000000002 C 62.726,68.66500000000002 66.99199999999999,66.98200000000001 72.538,62.70100000000002 L 73.44,62.075000000000024 L 71.22,49.84100000000002 L 85.368,44.965000000000025 L 87.999,43.995000000000026 L 87.996,43.995000000000026 L 87.997,43.994 M 46.55,46.286 L 55.417,50.016 L 53.89,53.949999999999996 L 43.725,51.483 A 31.672,31.672 0.0 0,0 46.548,46.285999999999994 L 46.550000000000004,46.285999999999994 L 46.55,46.286 M 69.465,55.405 L 70.286,59.618 L 63.726,60.896 L 62.716,57.03 L 69.462,55.407000000000004 L 69.465,55.405 M 62.30800000000001,55.605000000000004 L 61.32500000000001,51.967000000000006 L 68.305,49.721000000000004 L 69.12700000000001,53.876000000000005 L 62.30800000000001,55.606 L 62.30800000000001,55.605000000000004 M 68.962,47.818000000000005 L 59.272000000000006,50.99400000000001 L 62.471000000000004,62.816 L 66.76100000000001,62.136 C 61.01100000000001,65.305 55.10600000000001,66.179 49.16300000000001,64.741 L 42.30300000000001,53.619 C 42.35800000000001,53.547 55.24300000000001,56.076 55.24300000000001,56.076 L 57.89100000000001,49.242000000000004 L 47.00400000000001,44.23500000000001 A 42.325,42.325 0.0 0,0 48.463000000000015,39.61800000000001 L 56.09800000000001,42.17900000000001 L 61.73000000000001,24.227000000000007 C 63.60200000000001,25.948000000000008 67.86600000000001,28.625000000000007 70.41600000000001,29.80700000000001 L 62.32700000000001,43.69700000000001 L 76.09700000000001,35.55200000000001 C 77.28300000000002,38.20400000000001 78.358,40.22500000000001 81.84100000000001,43.361000000000004 L 68.962,47.821000000000005 L 68.962,47.818000000000005" fill="#ffaa33" fill-rule="evenodd" clip-rule="evenodd" /></g></svg>