<?xml version='1.0' encoding='utf-8'?>
<svg xmlns="http://www.w3.org/2000/svg" width="250" height="250" viewBox="0.000000 0.000000 66.145832 66.145835"><path id="face_1" d="M 45.076792 61.735477 L 45.462827 61.607395 L 45.817498 61.440911 L 46.142317 61.234590 L 46.438795 60.986995 L 46.708443 60.696693 L 46.952771 60.362246 L 47.173291 59.982220 L 47.371513 59.555178 L 48.694034 55.002498 L 51.400196 45.439205 L 54.101781 35.795823 L 55.410573 31.002874 L 55.533538 30.067432 L 55.501567 29.745093 L 55.416080 29.410044 L 55.289148 29.099003 L 55.132840 28.848685 L 54.904825 28.624475 L 54.585699 28.393608 L 54.205884 28.175621 L 53.795805 27.990054 L 53.454956 27.831199 L 53.358938 27.720610 L 53.579214 26.393646 L 53.803621 24.570062 L 53.853729 23.379154 L 53.848571 21.859671 L 53.795491 20.388679 L 53.701833 19.343242 L 53.414169 17.822036 L 53.044501 16.396253 L 52.589355 15.058716 L 52.045258 13.802251 L 51.408737 12.619681 L 50.676318 11.503831 L 49.844527 10.447526 L 48.909893 9.443590 L 48.124426 8.717232 L 47.290591 8.048059 L 46.411981 7.437002 L 45.492189 6.884993 L 44.534808 6.392962 L 43.543432 5.961839 L 42.521655 5.592557 L 41.473069 5.286045 L 40.401269 5.043235 L 39.309847 4.865058 L 38.202398 4.752445 L 37.082514 4.706326 L 35.953790 4.727632 L 34.819818 4.817296 L 33.684191 4.976246 L 32.550504 5.205416 L 31.605294 5.458366 L 30.650096 5.775811 L 29.694895 6.152876 L 28.749677 6.584683 L 27.824426 7.066356 L 26.929127 7.593020 L 26.073764 8.159798 L 25.268323 8.761813 L 24.599385 9.346607 L 23.796631 10.121361 L 23.022128 10.923994 L 22.437943 11.592426 L 21.725026 12.548218 L 21.051199 13.568174 L 20.434935 14.622593 L 19.894706 15.681772 L 19.245864 17.226331 L 18.788071 18.541434 L 18.712804 18.842112 L 17.964816 18.842112 L 17.274918 18.871291 L 16.849332 19.033240 L 16.497948 19.262024 L 16.166874 19.564706 L 15.877320 19.918840 L 15.650493 20.301981 L 14.426434 24.411648 L 11.870230 33.243032 L 9.250885 42.388383 L 7.837402 47.439950 L 7.592727 48.560204 L 7.453258 49.555299 L 7.421237 50.401192 L 7.498901 51.073838 L 7.632559 51.486584 L 7.836377 51.875387 L 8.107873 52.238094 L 8.444562 52.572548 L 8.843961 52.876595 L 9.303584 53.148081 L 9.820950 53.384852 L 10.393573 53.584752 L 26.480646 57.751865 L 42.145706 61.734588 L 42.974929 61.863919 L 43.435060 61.882827 L 44.043781 61.861302 L 44.643542 61.808975 L 45.076792 61.735477 L 45.076792 61.735477 Z M 32.250739 55.401503 L 31.817930 55.253146 L 31.455022 55.053378 L 31.163755 54.805232 L 30.945867 54.511742 L 30.803097 54.175942 L 30.737183 53.800864 L 30.749864 53.389544 L 30.842878 52.945013 L 31.057896 52.418052 L 31.486757 51.724790 L 32.237934 50.708038 L 33.419896 49.210610 L 34.892424 47.338746 L 35.196984 46.912509 L 35.265407 46.757391 L 34.727548 46.682121 L 33.421985 46.609403 L 29.456845 46.491143 L 25.268171 46.441661 L 23.683193 46.454915 L 22.754150 46.500007 L 22.344725 46.549137 L 21.938212 47.261814 L 21.335849 48.390609 L 20.876738 49.418176 L 20.552326 50.366075 L 20.354062 51.255866 L 20.157504 52.274296 L 20.035885 52.435306 L 19.822153 52.550509 L 19.371528 52.690088 L 18.786430 52.751771 L 18.146997 52.732767 L 17.533365 52.630281 L 16.737957 52.383903 L 15.983140 52.063768 L 15.310417 51.690047 L 14.761289 51.282914 L 14.537138 51.055461 L 14.443907 50.901224 L 14.597195 50.587524 L 15.001637 49.975350 L 16.231440 48.333300 L 17.202559 47.073563 L 17.338926 46.858184 L 16.776747 46.899835 L 14.343681 47.007594 L 12.855532 47.081063 L 11.904846 47.164868 L 11.512060 47.215552 L 11.264957 47.190025 L 11.083366 47.059013 L 10.887117 46.793242 L 10.700171 46.454652 L 10.578433 46.086729 L 10.518715 45.675786 L 10.517827 45.208137 L 10.609434 44.600409 L 10.808936 44.088789 L 11.110741 43.683506 L 11.509257 43.394788 L 11.835712 43.273247 L 12.284757 43.179496 L 13.554692 43.075237 L 15.327210 43.081748 L 17.610460 43.198769 L 19.619771 43.315683 L 20.978549 41.398829 L 22.618749 39.254821 L 24.327911 37.198361 L 26.036982 35.294134 L 27.734809 33.552082 L 29.410240 31.982148 L 31.052123 30.594277 L 32.649306 29.398411 L 34.190638 28.404495 L 35.664965 27.622471 L 36.776395 27.153074 L 37.848588 26.804138 L 38.882556 26.575613 L 39.879311 26.467450 L 40.839867 26.479599 L 41.765236 26.612010 L 42.656430 26.864633 L 43.514462 27.237420 L 43.917590 27.466713 L 44.282185 27.720454 L 44.608371 27.999085 L 44.896269 28.303050 L 45.146002 28.632792 L 45.357693 28.988756 L 45.531466 29.371384 L 45.667441 29.781120 L 45.765742 30.218408 L 45.826492 30.683690 L 45.835829 31.700014 L 45.696432 32.833640 L 45.409283 34.088115 L 45.016809 35.334642 L 44.455451 36.772440 L 43.661701 38.552305 L 42.572053 40.825031 L 41.379254 43.313017 L 40.970406 44.302841 L 41.055231 44.379740 L 41.287789 44.436029 L 42.494999 44.664628 L 43.977189 45.002881 L 45.656057 45.481701 L 47.114404 46.005956 L 48.220028 46.522005 L 48.599254 46.760189 L 48.840723 46.976207 L 49.005613 47.227406 L 49.117919 47.512770 L 49.174801 47.822307 L 49.173415 48.146025 L 49.071438 48.526547 L 48.855012 48.836810 L 48.540121 49.060742 L 48.142749 49.182273 L 47.946103 49.192369 L 47.697946 49.143256 L 46.660958 48.756421 L 45.100479 48.177550 L 43.635175 47.743133 L 42.069294 47.403158 L 40.207080 47.107617 L 39.371862 47.006779 L 39.251697 47.111197 L 39.106268 47.390978 L 37.987856 49.719162 L 36.706915 52.159077 L 35.560724 54.011150 L 35.104459 54.649384 L 34.798746 54.988020 L 34.565604 55.132321 L 34.280611 55.254617 L 33.609998 55.424281 L 32.896758 55.479185 L 32.250739 55.401503 L 32.250739 55.401503 Z M 35.829896 23.360297 L 28.346219 21.416944 L 25.219175 20.565557 L 25.276895 20.289919 L 25.477818 19.735025 L 26.105187 18.307573 L 26.690283 17.225672 L 27.346814 16.220040 L 28.071010 15.294358 L 28.859099 14.452306 L 29.707312 13.697564 L 30.611876 13.033810 L 31.569021 12.464727 L 32.574976 11.993993 L 33.399628 11.693041 L 34.234393 11.458082 L 35.075362 11.288273 L 35.918627 11.182773 L 36.760280 11.140740 L 37.596414 11.161332 L 38.423119 11.243707 L 39.236489 11.387024 L 40.032615 11.590439 L 40.807589 11.853112 L 41.557503 12.174200 L 42.278449 12.552862 L 42.966519 12.988256 L 43.617806 13.479539 L 44.228400 14.025871 L 44.794394 14.626408 L 45.204723 15.133938 L 45.578911 15.665519 L 45.916971 16.221174 L 46.218915 16.800928 L 46.484754 17.404806 L 46.714500 18.032833 L 46.908164 18.685034 L 47.065760 19.361433 L 47.191805 20.262018 L 47.216414 21.748668 L 47.203713 22.830715 L 47.149791 23.633720 L 47.027349 24.400409 L 46.809088 25.373511 L 46.650534 25.942784 L 46.589095 26.056069 L 46.527127 26.086530 L 35.829896 23.360297 L 35.829896 23.360297 Z" fill="#e83848" fill-opacity="1" /><path id="face_4" d="M 42.467572 65.314480 L 42.467572 65.314480 L 44.211049 65.346891 L 45.131714 65.304710 L 45.853627 65.205680 L 46.495113 65.025575 L 47.174501 64.740170 L 47.731560 64.452669 L 48.217660 64.140015 L 48.669194 63.775942 L 49.122554 63.334185 L 49.572207 62.821530 L 49.978203 62.265411 L 50.350017 61.644610 L 50.697123 60.937910 L 51.028997 60.124096 L 51.355111 59.181949 L 52.027960 56.827792 L 54.275450 48.716310 L 57.652234 36.749169 L 58.691338 32.928483 L 58.905343 31.877831 L 59.016510 30.973299 L 59.064667 29.698430 L 59.023913 29.145251 L 58.935670 28.629292 L 58.796737 28.136338 L 58.603915 27.652175 L 58.354002 27.162590 L 58.043799 26.653368 L 57.707297 26.115778 L 57.538931 25.665029 L 57.480325 25.018949 L 57.473101 23.895369 L 57.421198 21.204191 L 57.253497 19.009061 L 57.118623 18.031923 L 56.945679 17.100089 L 56.731627 16.187320 L 56.473425 15.267382 L 56.148556 14.276041 L 55.781148 13.313406 L 55.371937 12.380365 L 54.921660 11.477804 L 54.431052 10.606612 L 53.900850 9.767674 L 53.331790 8.961878 L 52.724607 8.190111 L 52.080038 7.453260 L 51.398819 6.752212 L 50.681686 6.087854 L 49.929374 5.461074 L 49.142621 4.872759 L 48.322161 4.323795 L 47.468731 3.815069 L 46.583068 3.347469 L 45.538081 2.861434 L 44.511682 2.452610 L 43.479801 2.115695 L 42.418366 1.845390 L 41.303307 1.636394 L 40.110553 1.483405 L 38.816033 1.381123 L 37.395676 1.324247 L 35.621412 1.316441 L 34.123040 1.396443 L 32.754017 1.577602 L 31.367798 1.873263 L 29.960905 2.270334 L 28.595526 2.754283 L 27.273938 3.323847 L 25.998416 3.977761 L 24.771236 4.714760 L 23.594672 5.533579 L 22.471000 6.432955 L 21.402497 7.411621 L 20.137754 8.737929 L 19.014958 10.135180 L 18.534797 10.810817 L 18.083565 11.520555 L 17.058077 13.391459 L 16.532457 14.362486 L 16.097432 15.012227 L 15.635052 15.488709 L 15.027366 15.939957 L 14.187367 16.543622 L 13.568621 17.083455 L 13.087110 17.643444 L 12.658816 18.307573 L 12.237489 19.381263 L 11.488502 21.719238 L 10.403151 25.349810 L 8.972735 30.301292 L 6.737176 37.985292 L 5.678270 41.539397 L 4.942577 44.171831 L 4.467713 46.118566 L 4.191299 47.615570 L 4.119108 48.566032 L 4.087177 49.899791 L 4.098663 51.208486 L 4.156728 52.083758 L 4.306028 52.744979 L 4.538607 53.371449 L 4.852153 53.960334 L 5.244352 54.508805 L 5.712892 55.014030 L 6.255460 55.473178 L 6.869744 55.883418 L 7.553430 56.241918 L 8.914875 56.805540 L 10.621529 57.371871 L 12.912824 58.013238 L 16.028194 58.801970 L 25.345146 61.159216 L 33.620495 63.310200 L 36.599934 64.097748 L 39.049451 64.690201 L 40.996259 65.093723 L 42.467572 65.314480 Z M 43.008338 64.535737 L 41.055955 64.263868 L 38.993379 63.862856 L 36.566265 63.276781 L 33.520268 62.449725 L 23.366919 59.799738 L 12.005072 56.893428 L 9.550392 56.223754 L 8.653718 55.893992 L 7.854001 55.525219 L 7.151815 55.117913 L 6.547735 54.672555 L 6.042333 54.189627 L 5.636184 53.669607 L 5.329863 53.112976 L 5.123943 52.520214 L 4.962244 51.481457 L 4.901426 50.163446 L 4.942942 48.770458 L 5.088249 47.506768 L 5.401169 46.003063 L 5.903373 44.024852 L 6.621286 41.474048 L 7.581332 38.252561 L 10.133047 29.432668 L 12.269524 21.967478 L 12.702976 20.540001 L 12.974678 19.759281 L 13.409553 18.788016 L 13.654527 18.378958 L 13.925661 18.011432 L 14.228807 17.678297 L 14.569816 17.372415 L 15.388827 16.813852 L 16.181374 16.303581 L 16.488814 16.038057 L 16.770903 15.722855 L 17.053044 15.325914 L 17.360641 14.815170 L 18.153818 13.324020 L 18.988526 11.794221 L 19.788397 10.551972 L 20.663406 9.442884 L 21.723525 8.312568 L 22.763703 7.339039 L 23.862096 6.445662 L 25.018247 5.632693 L 26.231698 4.900386 L 27.501994 4.248995 L 28.828678 3.678775 L 30.211293 3.189980 L 31.649381 2.782865 L 32.829840 2.522714 L 33.969375 2.354851 L 35.200902 2.264816 L 36.657338 2.238155 L 38.694093 2.295366 L 40.522021 2.470803 L 42.189106 2.770994 L 43.743329 3.202471 L 44.926361 3.635546 L 46.061805 4.137823 L 47.148117 4.707522 L 48.183752 5.342863 L 49.167164 6.042065 L 50.096810 6.803347 L 50.971144 7.624931 L 51.788621 8.505034 L 52.547698 9.441877 L 53.246828 10.433680 L 53.884468 11.478661 L 54.459072 12.575042 L 54.969096 13.721041 L 55.412995 14.914879 L 55.789224 16.154774 L 56.096238 17.438947 L 56.334691 18.793369 L 56.491389 20.236302 L 56.578001 21.917583 L 56.606199 23.987050 L 56.612286 25.256591 L 56.677899 25.971290 L 56.757159 26.231217 L 56.880257 26.485206 L 57.296578 27.152396 L 57.764354 27.972989 L 58.047690 28.721607 L 58.177790 29.514605 L 58.185859 30.468337 L 58.125649 31.275396 L 57.996242 32.108498 L 57.775467 33.082019 L 57.441155 34.310335 L 53.736562 47.442492 L 51.310212 55.992406 L 50.155779 59.937342 L 49.634846 61.140272 L 49.100819 62.106367 L 48.784032 62.511835 L 48.382031 62.938873 L 47.948643 63.334474 L 47.537697 63.645631 L 47.062414 63.915561 L 46.516232 64.152109 L 45.929678 64.343734 L 45.333276 64.478899 L 44.186709 64.564336 L 43.008338 64.535737 L 43.008338 64.535737 Z" fill="#e83848" fill-opacity="1" /><path id="face_5" d="M 37.655994 41.910812 L 39.293542 38.849895 L 40.559106 36.219729 L 41.050502 35.070409 L 41.446632 34.033855 L 41.746740 33.111760 L 41.950068 32.305815 L 42.032974 31.728536 L 42.067084 31.102096 L 42.050744 30.537367 L 41.982300 30.145222 L 41.865856 29.906572 L 41.695722 29.671486 L 41.495686 29.468139 L 41.289533 29.324704 L 40.885279 29.184477 L 40.405413 29.138767 L 39.857458 29.185431 L 39.248935 29.322327 L 38.587366 29.547312 L 37.880274 29.858241 L 37.135181 30.252973 L 36.359607 30.729364 L 34.847656 31.807553 L 33.278065 33.087375 L 31.694466 34.523411 L 30.140492 36.070242 L 28.659776 37.682445 L 27.295949 39.314603 L 26.092645 40.921293 L 25.093495 42.457097 L 24.600149 43.335395 L 24.869568 43.380099 L 25.674961 43.422239 L 28.876461 43.498169 L 32.814573 43.599270 L 35.558200 43.727224 L 36.399033 43.788882 L 36.535602 43.760401 L 36.715991 43.549401 L 37.655994 41.910812 L 37.655994 41.910812 Z" fill="#e83848" fill-opacity="1" /><path id="face_8" d="M 44.557989 22.700816 L 44.599558 22.236374 L 44.604348 21.474268 L 44.576171 20.669790 L 44.518839 20.078233 L 44.394551 19.497946 L 44.230829 18.937466 L 44.028923 18.398079 L 43.790083 17.881070 L 43.515558 17.387722 L 43.206600 16.919322 L 42.864458 16.477154 L 42.490382 16.062503 L 42.085622 15.676653 L 41.651428 15.320890 L 41.189051 14.996498 L 40.699740 14.704763 L 40.184746 14.446969 L 39.645318 14.224400 L 39.082707 14.038342 L 38.498163 13.890080 L 37.766595 13.794079 L 36.864960 13.761551 L 35.964820 13.792633 L 35.237737 13.887461 L 34.332133 14.134397 L 33.465451 14.472279 L 32.640410 14.899107 L 31.859733 15.412882 L 31.126141 16.011605 L 30.442355 16.693278 L 29.811097 17.455899 L 29.235087 18.297471 L 28.900231 18.921557 L 29.907123 19.203742 L 37.362270 21.108794 L 44.393524 22.878731 L 44.491428 22.834212 L 44.557989 22.700810 L 44.557989 22.700816 Z M 43.976795 21.665146 L 43.976795 21.665146 L 43.927077 21.743688 L 30.228889 18.245698 L 30.346939 18.048750 L 30.709687 17.638254 L 31.670558 16.708416 L 32.353819 16.171206 L 33.047006 15.709616 L 33.748595 15.324224 L 34.457063 15.015609 L 35.170885 14.784348 L 35.888537 14.631021 L 36.608496 14.556206 L 37.329237 14.560482 L 37.968779 14.625640 L 38.578751 14.741776 L 39.161393 14.909906 L 39.718945 15.131048 L 40.253647 15.406221 L 40.767739 15.736442 L 41.263462 16.122730 L 41.743055 16.566101 L 42.359068 17.257485 L 42.868494 17.996991 L 43.280012 18.799146 L 43.602301 19.678477 L 43.843325 20.738091 L 43.976795 21.665146 Z" fill="#e83848" fill-opacity="1" /></svg>