<?xml version='1.0' encoding='utf-8'?>
<svg xmlns="http://www.w3.org/2000/svg" width="250" height="250" viewBox="0 0 50 50" fill="none"><g transform="translate(-36 -19.9995)"><path d="M 85.99799999999998,49.40900000000001 L 81.57299999999998,47.39400000000001 C 82.78999999999998,36.991000000000014 75.97699999999998,27.26200000000001 65.78599999999997,24.847000000000012 L 65.406,20.0 L 63.39000000000001,24.422 C 52.99000000000001,23.208000000000002 43.26200000000001,30.018 40.84700000000001,40.211 L 36.0,40.59 L 40.425,42.605000000000004 C 39.208,53.008 46.019999999999996,62.73700000000001 56.211999999999996,65.152 L 56.592,69.999 L 58.607,65.577 C 69.01,66.794 78.738,59.980999999999995 81.15299999999999,49.788 L 86.0,49.41 L 85.998,49.41 L 85.99799999999998,49.40900000000001 M 60.025999999999975,62.45900000000002 L 64.18299999999998,53.33100000000002 L 69.13299999999998,56.619000000000014 L 67.73699999999998,50.84200000000001 L 77.73499999999999,50.057000000000016 C 75.41299999999998,57.75800000000002 68.05799999999999,62.91000000000002 60.027999999999984,62.45600000000002 L 60.02599999999998,62.45800000000002 L 60.025999999999975,62.45900000000002 M 43.543999999999976,44.02900000000002 L 52.67099999999998,48.18700000000002 L 49.38199999999998,53.13700000000002 L 55.15899999999998,51.74000000000002 L 55.943999999999974,61.74000000000002 C 48.24399999999997,59.41700000000002 43.09199999999997,52.062000000000026 43.54599999999998,44.032000000000025 L 43.543999999999976,44.029000000000025 L 43.543999999999976,44.02900000000002 M 61.97199999999998,27.54400000000002 L 57.81499999999998,36.67200000000002 L 52.86499999999998,33.38200000000002 L 54.26099999999998,39.16000000000002 L 44.262999999999984,39.94600000000002 C 46.58499999999999,32.24400000000002 53.93999999999998,27.093000000000018 61.96899999999998,27.54600000000002 L 61.97199999999998,27.544000000000022 L 61.97199999999998,27.54400000000002 M 78.45599999999999,45.97400000000002 L 69.329,41.81600000000002 L 72.618,36.866000000000014 L 66.841,38.262000000000015 L 66.056,28.263000000000012 C 73.756,30.58500000000001 78.908,37.94000000000001 78.454,45.97100000000001 L 78.45599999999999,45.97300000000001 L 78.45599999999999,45.97400000000002 M 80.826,48.49900000000002 L 78.22099999999999,48.039000000000016 L 61.0,45.005 L 64.333,49.765 L 57.503,64.832 L 57.962,62.22599999999999 L 60.997,45.004999999999995 L 56.237,48.337999999999994 L 43.674,42.64399999999999 L 41.168,41.50699999999999 L 43.775,41.96699999999999 L 60.995,45.0 L 57.662,40.239 L 64.492,25.171999999999997 L 64.033,27.778999999999996 L 60.998,45.0 L 65.758,41.667 L 80.824,48.497 L 80.827,48.497 L 80.826,48.49900000000002" fill="#3388bb" fill-rule="evenodd" clip-rule="evenodd" /></g></svg>