<?xml version='1.0' encoding='utf-8'?>
<svg xmlns="http://www.w3.org/2000/svg" width="250" height="250" viewBox="0.000000 0.000000 250.000000 250.000000"><path id="face_2" d="M 199.656760 190.271890 L 200.737746 190.089604 L 201.811421 189.861681 L 202.876458 189.588801 L 203.931528 189.271640 L 204.975307 188.910879 L 206.006466 188.507193 L 207.023679 188.061263 L 208.025619 187.573766 L 209.010959 187.045381 L 209.978372 186.476785 L 210.926531 185.868658 L 211.854110 185.221676 L 212.759781 184.536520 L 213.642218 183.813866 L 214.500093 183.054393 L 215.332080 182.258780 L 216.612754 180.917431 L 217.736552 179.587363 L 218.717153 178.244231 L 219.568239 176.863694 L 220.303488 175.421406 L 220.936581 173.893025 L 221.481198 172.254208 L 221.951020 170.480610 L 222.239126 169.138730 L 222.404004 167.909419 L 222.480027 166.402230 L 222.501570 164.226720 L 222.487928 162.229507 L 222.429038 160.724452 L 222.313698 159.537349 L 222.130710 158.493990 L 221.854207 157.314494 L 221.535184 156.159094 L 221.173834 155.028113 L 220.770350 153.921875 L 220.324925 152.840705 L 219.837753 151.784927 L 219.309027 150.754866 L 218.738940 149.750845 L 218.127686 148.773189 L 217.475457 147.822222 L 216.782448 146.898268 L 216.048850 146.001652 L 215.274859 145.132698 L 214.460666 144.291730 L 213.606465 143.479073 L 212.712450 142.695050 L 211.687192 141.862852 L 210.626974 141.063848 L 209.531014 140.297684 L 208.398529 139.564004 L 207.228735 138.862455 L 206.020849 138.192682 L 204.774088 137.554329 L 203.487669 136.947043 L 202.160809 136.370467 L 200.792725 135.824248 L 199.382633 135.308032 L 197.929752 134.821462 L 196.433297 134.364185 L 194.892485 133.935845 L 191.674660 133.164560 L 190.794551 132.987837 L 189.765613 132.841806 L 188.263193 132.710410 L 185.962635 132.577590 L 177.668492 132.243444 L 162.285950 131.710900 L 143.264254 131.083974 L 135.311500 130.864290 L 139.739924 137.334645 L 150.485770 152.792250 L 165.730380 174.649880 L 168.687800 177.570160 L 170.751849 179.519501 L 172.844510 181.320834 L 174.959732 182.970156 L 177.091463 184.463465 L 179.233649 185.796757 L 181.380238 186.966031 L 183.525180 187.967282 L 185.662420 188.796510 L 187.361260 189.324773 L 189.277858 189.823905 L 191.120073 190.224014 L 192.595770 190.455210 L 194.209887 190.550087 L 196.077553 190.547191 L 197.969574 190.452475 L 199.656760 190.271890 L 199.656760 190.271890 Z" fill="#33ddaa" fill-opacity="1" /><path id="face_3" d="M 114.595830 120.175770 L 99.139672 97.988033 L 83.753003 75.969762 L 81.059120 73.359771 L 78.898669 71.360488 L 76.703118 69.512818 L 74.482393 67.823145 L 72.246423 66.297857 L 70.005137 64.943338 L 67.768461 63.765975 L 66.654954 63.245722 L 65.546324 62.772153 L 64.443809 62.346066 L 63.348653 61.968258 L 61.514104 61.437793 L 59.670467 61.030133 L 57.822745 60.744251 L 55.975939 60.579120 L 54.135053 60.533713 L 52.305088 60.607003 L 50.491047 60.797964 L 48.697933 61.105568 L 46.930747 61.528789 L 45.194493 62.066600 L 43.494172 62.717974 L 41.834787 63.481884 L 40.221340 64.357304 L 38.658834 65.343206 L 37.152271 66.438563 L 35.706654 67.642350 L 34.165180 69.101736 L 32.805900 70.581292 L 32.190732 71.335150 L 31.616494 72.101870 L 31.081645 72.884059 L 30.584645 73.684323 L 30.123955 74.505270 L 29.698034 75.349505 L 29.305343 76.219636 L 28.944343 77.118268 L 28.311252 79.011466 L 27.786445 81.049951 L 27.612863 82.052663 L 27.478454 83.292419 L 27.384687 84.695417 L 27.333031 86.187858 L 27.324955 87.695940 L 27.361929 89.145862 L 27.445422 90.463824 L 27.576903 91.576024 L 27.782893 92.723037 L 28.034293 93.850989 L 28.330735 94.959533 L 28.671845 96.048320 L 29.057254 97.117005 L 29.486591 98.165240 L 29.959485 99.192678 L 30.475564 100.198972 L 31.034458 101.183774 L 31.635796 102.146737 L 32.279208 103.087516 L 32.964322 104.005761 L 33.690767 104.901126 L 34.458172 105.773265 L 35.266167 106.621829 L 36.114381 107.446472 L 37.002442 108.246846 L 37.929980 109.022605 L 38.896624 109.773401 L 39.902003 110.498888 L 40.945746 111.198717 L 42.027483 111.872542 L 43.146842 112.520016 L 44.303452 113.140792 L 45.496942 113.734522 L 46.726943 114.300860 L 49.294989 115.349968 L 52.004622 116.285341 L 54.852876 117.104200 L 56.601419 117.555821 L 58.160906 117.900474 L 59.927958 118.166343 L 62.299197 118.381610 L 65.671243 118.574460 L 70.440717 118.773076 L 85.758435 119.300340 L 107.601034 120.043554 L 113.970440 120.305080 L 114.440785 120.283666 L 114.567981 120.238405 L 114.595830 120.175770 L 114.595830 120.175770 Z" fill="#33ddaa" fill-opacity="1" /><path id="face_4" d="M 60.054728 189.980800 L 61.410088 189.660567 L 62.764987 189.276622 L 64.118960 188.829239 L 65.471539 188.318695 L 66.822257 187.745266 L 68.170650 187.109225 L 69.516248 186.410850 L 70.858587 185.650415 L 72.197198 184.828196 L 73.531617 183.944469 L 74.861376 182.999508 L 76.186008 181.993590 L 77.505046 180.926989 L 78.818025 179.799982 L 80.124478 178.612844 L 81.423937 177.365850 L 82.293509 176.494631 L 83.138410 175.565840 L 84.165961 174.295529 L 85.583483 172.399746 L 90.417721 165.595966 L 99.299690 152.882900 L 110.107506 137.343066 L 114.563670 130.840470 L 112.897976 130.854533 L 108.987240 130.982370 L 82.061104 131.918000 L 69.893178 132.339812 L 63.209598 132.619094 L 61.283853 132.739094 L 59.960492 132.864031 L 58.983281 133.007428 L 58.095986 133.182810 L 56.486314 133.543514 L 54.914384 133.937732 L 53.380659 134.365068 L 51.885601 134.825125 L 50.429671 135.317505 L 49.013332 135.841812 L 47.637046 136.397649 L 46.301275 136.984618 L 45.006482 137.602322 L 43.753129 138.250366 L 42.541678 138.928351 L 41.372590 139.635880 L 40.246329 140.372557 L 39.163356 141.137985 L 38.124133 141.931766 L 37.129124 142.753504 L 36.178789 143.602801 L 35.273591 144.479261 L 34.413993 145.382486 L 33.600456 146.312080 L 32.833443 147.267645 L 32.113415 148.248785 L 31.440835 149.255103 L 30.816166 150.286200 L 30.239869 151.341682 L 29.712406 152.421150 L 29.234240 153.524207 L 28.805833 154.650457 L 28.427647 155.799502 L 28.100144 156.970945 L 27.823787 158.164391 L 27.599037 159.379440 L 27.465959 160.407404 L 27.371148 161.580483 L 27.296216 164.159940 L 27.374020 166.713717 L 27.470128 167.854696 L 27.604337 168.837720 L 28.005658 170.834129 L 28.498513 172.672826 L 29.096118 174.380261 L 29.811689 175.982885 L 30.658440 177.507147 L 31.649589 178.979497 L 32.798349 180.426384 L 34.117936 181.874260 L 34.925973 182.678734 L 35.758548 183.446868 L 36.615055 184.178337 L 37.494888 184.872815 L 38.397441 185.529978 L 39.322108 186.149501 L 40.268281 186.731059 L 41.235357 187.274326 L 42.222728 187.778979 L 43.229788 188.244691 L 44.255931 188.671139 L 45.300551 189.057997 L 46.363042 189.404940 L 47.442799 189.711643 L 48.539213 189.977781 L 49.651681 190.203030 L 50.774657 190.365041 L 52.032341 190.471031 L 53.382724 190.521899 L 54.783794 190.518541 L 56.193544 190.461855 L 57.569961 190.352738 L 58.871037 190.192087 L 60.054762 189.980800 L 60.054728 189.980800 Z" fill="#33ddaa" fill-opacity="1" /><path id="face_5" d="M 164.308080 119.289190 L 178.405621 118.810263 L 186.078525 118.502625 L 188.243371 118.376330 L 189.687217 118.248807 L 190.705115 118.105371 L 191.592120 117.931340 L 193.486059 117.505256 L 195.318881 117.039511 L 197.091414 116.533688 L 198.804487 115.987369 L 200.458929 115.400137 L 202.055567 114.771573 L 203.595230 114.101262 L 205.078748 113.388784 L 206.506947 112.633722 L 207.880656 111.835659 L 209.200705 110.994177 L 210.467921 110.108859 L 211.683133 109.179287 L 212.847170 108.205043 L 213.960859 107.185710 L 215.025030 106.120870 L 216.354847 104.642134 L 217.542912 103.132400 L 218.596864 101.577126 L 219.524341 99.961770 L 220.332981 98.271790 L 221.030422 96.492645 L 221.624302 94.609792 L 222.122260 92.608691 L 222.309764 91.568989 L 222.427024 90.394153 L 222.486472 88.896142 L 222.500540 86.886918 L 222.479482 84.709487 L 222.403703 83.201898 L 222.238542 81.970991 L 221.949340 80.623605 L 221.476856 78.832587 L 220.933365 77.185801 L 220.303962 75.656658 L 219.573745 74.218572 L 218.727808 72.844953 L 217.751248 71.509215 L 216.629160 70.184770 L 215.346640 68.845030 L 213.767974 67.377574 L 212.136123 66.054926 L 210.445841 64.874232 L 208.691880 63.832634 L 206.868992 62.927276 L 204.971929 62.155302 L 202.995445 61.513854 L 200.934290 61.000078 L 199.780190 60.809335 L 198.423218 60.678273 L 196.928665 60.606257 L 195.361818 60.592651 L 193.787966 60.636820 L 192.272400 60.738129 L 190.880408 60.895942 L 189.677280 61.109623 L 188.274920 61.454109 L 186.875787 61.863822 L 185.480295 62.338515 L 184.088855 62.877937 L 182.701879 63.481838 L 181.319781 64.149971 L 179.942972 64.882084 L 178.571865 65.677929 L 177.206872 66.537257 L 175.848404 67.459817 L 174.496876 68.445361 L 173.152698 69.493638 L 171.816283 70.604401 L 170.488044 71.777398 L 169.168392 73.012381 L 167.857740 74.309101 L 167.126760 75.088972 L 166.276669 76.099175 L 165.161544 77.541331 L 163.635465 79.617060 L 158.766761 86.475722 L 150.503190 98.288128 L 139.743631 113.735189 L 135.268420 120.226880 L 135.437022 120.262375 L 135.896086 120.274442 L 137.405160 120.227880 L 164.308080 119.288720 L 164.308080 119.289190 Z" fill="#33ddaa" fill-opacity="1" /><path id="face_6" d="M 149.548520 64.303299 L 150.137523 62.318855 L 150.652429 60.340732 L 151.093167 58.373027 L 151.459666 56.419838 L 151.751856 54.485260 L 151.969667 52.573391 L 152.113028 50.688328 L 152.181870 48.834168 L 152.176121 47.015007 L 152.095712 45.234942 L 151.940571 43.498071 L 151.710629 41.808489 L 151.405816 40.170294 L 151.026060 38.587583 L 150.571291 37.064452 L 150.041440 35.604999 L 149.364864 34.036393 L 148.608961 32.531127 L 147.774932 31.090234 L 146.863978 29.714746 L 145.877299 28.405697 L 144.816097 27.164119 L 143.681574 25.991046 L 142.474929 24.887509 L 141.197364 23.854542 L 139.850080 22.893178 L 138.434277 22.004450 L 136.951158 21.189391 L 135.401923 20.449033 L 133.787772 19.784409 L 132.109908 19.196553 L 130.369530 18.686497 L 129.159930 18.393296 L 128.074054 18.225702 L 126.780905 18.149845 L 124.949490 18.131852 L 123.074195 18.149022 L 121.761079 18.230827 L 120.608985 18.421628 L 119.216760 18.765789 L 117.351583 19.319455 L 115.553194 19.974266 L 113.824284 20.727635 L 112.167544 21.576972 L 110.585664 22.519691 L 109.081335 23.553203 L 107.657247 24.674919 L 106.316092 25.882252 L 105.060560 27.172614 L 103.893342 28.543416 L 102.817128 29.992070 L 101.834610 31.515988 L 100.948477 33.112582 L 100.161420 34.779265 L 99.476131 36.513446 L 98.895299 38.312540 L 98.575751 39.484233 L 98.312308 40.600174 L 98.100726 41.693996 L 97.936763 42.799335 L 97.816176 43.949826 L 97.734723 45.179102 L 97.672246 48.008552 L 97.729722 50.864535 L 97.811186 52.171303 L 97.933699 53.449395 L 98.101686 54.737917 L 98.319573 56.075971 L 98.922741 59.057096 L 99.364879 61.008095 L 99.837347 62.750755 L 100.511176 64.666199 L 101.557396 67.135546 L 103.147037 70.539917 L 105.451128 75.260432 L 112.886780 90.174376 L 124.897380 114.194860 L 136.971100 90.048129 L 141.882818 80.181420 L 145.805048 72.215349 L 148.454658 66.729460 L 149.213754 65.097692 L 149.548520 64.303299 L 149.548520 64.303299 Z" fill="#33ddaa" fill-opacity="1" /><path id="face_7" d="M 128.127700 232.798670 L 129.682168 232.520277 L 131.217298 232.151059 L 132.728970 231.693822 L 134.213064 231.151370 L 135.665462 230.526508 L 137.082042 229.822041 L 138.458686 229.040774 L 139.791274 228.185511 L 141.075686 227.259058 L 142.307802 226.264218 L 143.483503 225.203797 L 144.598669 224.080599 L 145.649180 222.897430 L 146.630917 221.657094 L 147.539761 220.362396 L 148.371590 219.016140 L 149.187143 217.478998 L 149.904981 215.862937 L 150.524964 214.171579 L 151.046950 212.408548 L 151.470799 210.577466 L 151.796370 208.681956 L 152.023523 206.725640 L 152.152116 204.712141 L 152.182010 202.645082 L 152.113063 200.528086 L 151.945135 198.364775 L 151.678085 196.158771 L 151.311772 193.913698 L 150.846055 191.633179 L 150.280795 189.320835 L 149.615850 186.980290 L 148.452665 184.459944 L 145.629955 178.625223 L 137.227915 161.513175 L 128.853640 144.645184 L 126.065637 139.115535 L 124.951040 137.022290 L 121.356070 144.063105 L 112.860900 160.991020 L 105.440109 175.874827 L 103.141743 180.583833 L 101.556022 183.980815 L 100.511414 186.448206 L 99.836389 188.368438 L 99.359416 190.123942 L 98.908964 192.097150 L 98.577014 193.678817 L 98.293920 195.238017 L 98.059676 196.774483 L 97.874274 198.287949 L 97.737708 199.778150 L 97.649973 201.244819 L 97.611060 202.687690 L 97.620964 204.106497 L 97.679679 205.500975 L 97.787198 206.870857 L 97.943513 208.215877 L 98.148620 209.535769 L 98.402511 210.830268 L 98.705180 212.099106 L 99.056620 213.342019 L 99.456825 214.558740 L 100.118297 216.247762 L 100.889230 217.881578 L 101.764689 219.455941 L 102.739738 220.966607 L 103.809441 222.409331 L 104.968862 223.779866 L 106.213065 225.073969 L 107.537113 226.287392 L 108.936071 227.415893 L 110.405003 228.455224 L 111.938973 229.401141 L 113.533045 230.249399 L 115.182283 230.995752 L 116.881750 231.635955 L 118.626511 232.165763 L 120.411630 232.580930 L 122.499349 232.932641 L 123.426678 233.032008 L 124.317309 233.081540 L 125.201984 233.082105 L 126.111447 233.034569 L 128.127700 232.798670 L 128.127700 232.798670 Z" fill="#33ddaa" fill-opacity="1" /><path id="face_8" d="M 121.301390 245.718710 L 121.301390 245.718710 L 122.028705 245.761587 L 123.086534 245.769564 L 125.789451 245.697832 L 128.601578 245.537537 L 130.714350 245.322700 L 132.827807 244.945907 L 134.902425 244.475610 L 136.934937 243.913740 L 138.922077 243.262232 L 140.860576 242.523018 L 142.747170 241.698031 L 144.578589 240.789203 L 146.351567 239.798467 L 148.062838 238.727758 L 149.709134 237.579006 L 151.287187 236.354146 L 152.793732 235.055109 L 154.225501 233.683829 L 155.579226 232.242239 L 156.851642 230.732272 L 158.039480 229.155860 L 158.957756 227.779086 L 159.874426 226.242418 L 160.769776 224.587686 L 161.624090 222.856720 L 162.417652 221.091352 L 163.130746 219.333412 L 163.743657 217.624731 L 164.236670 216.007140 L 164.722865 213.960456 L 165.087170 211.794685 L 165.330515 209.471292 L 165.453834 206.951739 L 165.458058 204.197487 L 165.344119 201.170000 L 165.112949 197.830740 L 164.765480 194.141170 L 164.594425 192.278770 L 164.565660 191.460280 L 164.714012 191.528867 L 165.064311 191.771137 L 166.161320 192.623990 L 168.203002 194.209677 L 170.294320 195.687770 L 172.429566 197.056427 L 174.603033 198.313808 L 176.809012 199.458071 L 179.041795 200.487375 L 181.295674 201.399878 L 183.564941 202.193739 L 185.843889 202.867116 L 188.126809 203.418169 L 190.407993 203.845056 L 192.681734 204.145935 L 194.942323 204.318965 L 197.184052 204.362305 L 199.401214 204.274114 L 201.588100 204.052550 L 203.319424 203.781070 L 205.046912 203.429293 L 206.765919 202.999601 L 208.471802 202.494380 L 210.159916 201.916011 L 211.825616 201.266878 L 213.464258 200.549365 L 215.071199 199.765855 L 216.641793 198.918731 L 218.171395 198.010378 L 219.655363 197.043177 L 221.089051 196.019513 L 222.467815 194.941769 L 223.787011 193.812328 L 225.041994 192.633574 L 226.228120 191.407890 L 227.085491 190.440878 L 227.911670 189.435575 L 228.705491 188.394328 L 229.465787 187.319482 L 230.191392 186.213386 L 230.881139 185.078384 L 231.533863 183.916823 L 232.148396 182.731050 L 232.723573 181.523410 L 233.258227 180.296251 L 233.751191 179.051918 L 234.201300 177.792757 L 234.607387 176.521116 L 234.968285 175.239340 L 235.282828 173.949776 L 235.549850 172.654770 L 235.744644 171.396122 L 235.903567 169.929058 L 236.024245 168.321737 L 236.104305 166.642319 L 236.141373 164.958962 L 236.133075 163.339828 L 236.077039 161.853074 L 235.970890 160.566860 L 235.775796 159.092789 L 235.525531 157.616738 L 235.221516 156.142184 L 234.865170 154.672599 L 234.457916 153.211459 L 234.001174 151.762239 L 233.496365 150.328412 L 232.944909 148.913454 L 232.348227 147.520838 L 231.707741 146.154040 L 231.024871 144.816534 L 230.301038 143.511794 L 229.537662 142.243295 L 228.736165 141.014512 L 227.897967 139.828919 L 227.024490 138.689990 L 225.497516 136.905345 L 223.804337 135.153917 L 221.980263 133.463642 L 220.060604 131.862457 L 218.080668 130.378300 L 216.075766 129.039107 L 214.081207 127.872815 L 213.098840 127.363237 L 212.132300 126.907360 L 211.151059 126.438206 L 210.742480 126.182210 L 211.181561 125.863650 L 212.238320 125.244130 L 214.676979 123.836894 L 216.898921 122.450551 L 218.921970 121.070948 L 220.763951 119.683932 L 222.442687 118.275349 L 223.976003 116.831045 L 225.381723 115.336867 L 226.677670 113.778660 L 228.370103 111.517090 L 229.869568 109.302349 L 231.187798 107.110242 L 232.336521 104.916573 L 233.327470 102.697147 L 234.172374 100.427768 L 234.882963 98.084239 L 235.470970 95.642367 L 235.794130 94.396634 L 236.050349 93.069452 L 236.246979 91.737120 L 236.391371 90.475935 L 236.593610 87.668654 L 236.362055 85.001892 L 236.017168 82.455256 L 235.771277 81.108111 L 235.470260 79.799173 L 235.099084 78.187393 L 234.678491 76.609579 L 234.209273 75.066490 L 233.692225 73.558882 L 233.128140 72.087514 L 232.517813 70.653143 L 231.862037 69.256527 L 231.161606 67.898424 L 230.417315 66.579590 L 229.629956 65.300785 L 228.800324 64.062765 L 227.929213 62.866288 L 227.017417 61.712112 L 226.065729 60.600995 L 225.074943 59.533693 L 224.045854 58.510966 L 222.979254 57.533571 L 221.875939 56.602264 L 220.736702 55.717805 L 219.562336 54.880950 L 218.353636 54.092458 L 217.111396 53.353085 L 215.836409 52.663590 L 214.529469 52.024731 L 213.191371 51.437264 L 211.822907 50.901948 L 210.424873 50.419540 L 208.998061 49.990799 L 207.543266 49.616481 L 206.061282 49.297344 L 204.552902 49.034147 L 203.018920 48.827646 L 201.782525 48.732611 L 200.193256 48.681437 L 196.385603 48.700509 L 192.454968 48.864538 L 190.711972 48.994558 L 189.260360 49.153196 L 187.767282 49.377873 L 186.305453 49.643701 L 184.871507 49.952104 L 183.462077 50.304511 L 182.073798 50.702346 L 180.703304 51.147036 L 179.347227 51.640008 L 178.002201 52.182687 L 176.664861 52.776500 L 175.331840 53.422874 L 173.999772 54.123234 L 172.665290 54.879007 L 171.325028 55.691618 L 169.975620 56.562495 L 168.613699 57.493064 L 167.235900 58.484750 L 165.420660 59.762297 L 165.369200 59.015123 L 165.314780 56.962686 L 165.222970 50.197415 L 165.141253 44.097625 L 165.071900 41.945096 L 164.969714 40.213321 L 164.824318 38.769184 L 164.625335 37.479567 L 164.362388 36.211353 L 164.025100 34.831426 L 163.697220 33.645771 L 163.322266 32.470565 L 162.901367 31.306903 L 162.435654 30.155877 L 161.926257 29.018583 L 161.374306 27.896113 L 160.780931 26.789563 L 160.147263 25.700025 L 159.474431 24.628595 L 158.763566 23.576366 L 158.015797 22.544432 L 157.232256 21.533887 L 156.414072 20.545825 L 155.562375 19.581340 L 154.678296 18.641526 L 153.762965 17.727478 L 152.817512 16.840289 L 151.843066 15.981052 L 150.840759 15.150863 L 149.811720 14.350815 L 148.757080 13.582002 L 147.677968 12.845519 L 146.575516 12.142458 L 145.450852 11.473915 L 144.305108 10.840983 L 143.139413 10.244756 L 141.954898 9.686328 L 140.752692 9.166793 L 139.533926 8.687246 L 138.299730 8.248780 L 137.051235 7.852489 L 135.789570 7.499467 L 133.347707 6.938856 L 130.899924 6.528602 L 128.452189 6.267344 L 126.010465 6.153721 L 123.580720 6.186372 L 121.168918 6.363938 L 118.781026 6.685056 L 116.423009 7.148367 L 114.100833 7.752510 L 111.820463 8.496123 L 109.587867 9.377848 L 107.409008 10.396322 L 105.289853 11.550185 L 103.236368 12.838077 L 101.254519 14.258637 L 99.350270 15.810504 L 98.227076 16.830228 L 97.136317 17.910331 L 96.080898 19.045947 L 95.063728 20.232212 L 94.087713 21.464262 L 93.155759 22.737232 L 92.270773 24.046257 L 91.435664 25.386473 L 90.653336 26.753015 L 89.926698 28.141019 L 89.258655 29.545619 L 88.652116 30.961952 L 88.109986 32.385153 L 87.635173 33.810356 L 87.230583 35.232698 L 86.899124 36.647314 L 86.425410 39.231206 L 86.269903 40.480772 L 86.159883 41.844492 L 86.088789 43.429171 L 86.050060 45.341615 L 86.043456 50.577020 L 86.017835 56.797607 L 85.958002 58.296035 L 85.916140 58.651051 L 85.866241 58.746611 L 83.932744 57.317334 L 82.473942 56.266343 L 80.966090 55.276517 L 79.410474 54.348273 L 77.808382 53.482029 L 76.161104 52.678202 L 74.469926 51.937210 L 72.736138 51.259471 L 70.961026 50.645402 L 69.145878 50.095421 L 67.291984 49.609946 L 65.400631 49.189394 L 63.473106 48.834182 L 61.510698 48.544729 L 59.514695 48.321451 L 57.486385 48.164767 L 55.427056 48.075094 L 53.842045 48.050647 L 52.381774 48.070097 L 51.005394 48.138039 L 49.672055 48.259068 L 48.340908 48.437779 L 46.971103 48.678769 L 45.521790 48.986631 L 43.952120 49.365962 L 42.268066 49.835368 L 40.550044 50.395152 L 38.824988 51.033575 L 37.119831 51.738901 L 35.461508 52.499391 L 33.876952 53.303307 L 32.393096 54.138913 L 31.036875 54.994469 L 30.209335 55.578776 L 29.395262 56.209700 L 28.595391 56.884004 L 27.810458 57.598449 L 26.288349 59.134817 L 24.834821 60.792901 L 23.455762 62.546800 L 22.157056 64.370612 L 20.944590 66.238437 L 19.824250 68.124372 L 18.801923 70.002517 L 17.883494 71.846970 L 17.074849 73.631830 L 16.381875 75.331196 L 15.810459 76.919166 L 15.366485 78.369838 L 15.055840 79.657311 L 14.884411 80.755685 L 14.715662 82.980580 L 14.644405 85.193900 L 14.655887 87.353177 L 14.735358 89.415943 L 14.868066 91.339727 L 15.039261 93.082062 L 15.234192 94.600478 L 15.438107 95.852506 L 15.722040 97.284518 L 16.109825 98.967325 L 16.615402 100.835227 L 17.252713 102.822526 L 18.035700 104.863523 L 18.486178 105.883627 L 18.978303 106.892518 L 19.513818 107.881984 L 20.094465 108.843813 L 20.721987 109.769793 L 21.398126 110.651710 L 23.235078 112.840527 L 24.975505 114.775462 L 26.693700 116.515234 L 28.463952 118.118564 L 30.360552 119.644170 L 32.457791 121.150774 L 34.829959 122.697094 L 37.551347 124.341850 L 39.575719 125.569487 L 40.191540 125.974042 L 40.417714 126.159550 L 40.244343 126.298607 L 39.772292 126.576640 L 38.220534 127.388350 L 36.606915 128.221960 L 35.100517 129.067470 L 33.679726 129.940158 L 32.322931 130.855297 L 31.008518 131.828166 L 29.714875 132.874038 L 28.420389 134.008191 L 27.103448 135.245900 L 25.772773 136.582594 L 24.553103 137.908124 L 23.433022 139.238214 L 22.401113 140.588585 L 21.445962 141.974962 L 20.556152 143.413068 L 19.720266 144.918626 L 18.926889 146.507360 L 18.293230 147.919825 L 17.724380 149.350651 L 17.218974 150.804785 L 16.775649 152.287174 L 16.393045 153.802765 L 16.069796 155.356505 L 15.804540 156.953341 L 15.595915 158.598220 L 15.511279 159.711777 L 15.462034 161.095370 L 15.463327 164.337574 L 15.587024 167.654640 L 15.690783 169.131813 L 15.820354 170.376380 L 16.043350 171.913177 L 16.310849 173.410146 L 16.623160 174.867971 L 16.980590 176.287338 L 17.383448 177.668930 L 17.832041 179.013432 L 18.326677 180.321530 L 18.867665 181.593909 L 19.455311 182.831252 L 20.089925 184.034245 L 20.771814 185.203573 L 21.501286 186.339920 L 22.278649 187.443972 L 23.104211 188.516413 L 23.978280 189.557927 L 24.901164 190.569200 L 26.082552 191.759348 L 27.322855 192.908148 L 28.618106 194.013451 L 29.964339 195.073106 L 31.357589 196.084962 L 32.793887 197.046871 L 34.269269 197.956680 L 35.779768 198.812240 L 37.321417 199.611401 L 38.890251 200.352011 L 40.482302 201.031922 L 42.093605 201.648982 L 43.720193 202.201041 L 45.358100 202.685949 L 47.003360 203.101555 L 48.652006 203.445710 L 49.885420 203.636573 L 51.262588 203.754199 L 53.028228 203.812138 L 55.427056 203.823940 L 58.046763 203.802373 L 59.807506 203.725176 L 61.228133 203.551419 L 62.827496 203.240170 L 64.327947 202.899375 L 65.780552 202.520240 L 67.199623 202.097663 L 68.599475 201.626546 L 69.994421 201.101788 L 71.398776 200.518287 L 72.826853 199.870945 L 74.292965 199.154660 L 76.969089 197.734711 L 79.386189 196.293124 L 81.724966 194.715170 L 84.166123 192.886120 L 85.707576 191.713793 L 86.380407 191.263340 L 86.337995 191.889986 L 86.159828 193.307320 L 85.775256 196.305197 L 85.477302 199.146316 L 85.267435 201.840782 L 85.147125 204.398698 L 85.117841 206.830168 L 85.181054 209.145296 L 85.338233 211.354187 L 85.590847 213.466944 L 85.940368 215.493671 L 86.388263 217.444472 L 86.936004 219.329451 L 87.585060 221.158713 L 88.336900 222.942361 L 89.192995 224.690498 L 90.154814 226.413230 L 91.223826 228.120660 L 92.307747 229.695081 L 93.433643 231.194261 L 94.602033 232.618577 L 95.813438 233.968402 L 97.068377 235.244113 L 98.367369 236.446084 L 99.710935 237.574691 L 101.099594 238.630309 L 102.533865 239.613313 L 104.014269 240.524079 L 105.541324 241.362981 L 107.115552 242.130396 L 108.737470 242.826698 L 110.407600 243.452262 L 112.126460 244.007465 L 113.894570 244.492680 L 116.394770 245.041905 L 118.591370 245.404230 L 121.301390 245.718710 Z M 121.846240 242.474110 L 120.300428 242.306036 L 118.774009 242.076343 L 117.268300 241.785623 L 115.784617 241.434470 L 114.324280 241.023475 L 112.888604 240.553233 L 111.478908 240.024336 L 110.096509 239.437377 L 108.742724 238.792950 L 107.418870 238.091646 L 106.126266 237.334059 L 104.866228 236.520782 L 103.640074 235.652407 L 102.449122 234.729528 L 101.294688 233.752738 L 100.178090 232.722630 L 99.169745 231.717378 L 98.210865 230.691204 L 97.301449 229.644107 L 96.441495 228.576085 L 95.631002 227.487134 L 94.869970 226.377254 L 94.158396 225.246441 L 93.496279 224.094694 L 92.883619 222.922009 L 92.320414 221.728386 L 91.806662 220.513821 L 91.342363 219.278313 L 90.927516 218.021859 L 90.562119 216.744457 L 90.246171 215.446105 L 89.979670 214.126800 L 89.721891 212.492040 L 89.581379 210.636055 L 89.523124 207.717897 L 89.512111 202.896620 L 89.526000 198.326258 L 89.579642 195.422124 L 89.693924 193.597335 L 89.889731 192.265010 L 90.359445 190.027844 L 90.956992 187.565772 L 91.658202 184.972867 L 92.438905 182.343200 L 93.367337 179.219960 L 92.402870 180.061042 L 90.084044 182.269660 L 87.310041 184.922854 L 84.823570 187.220075 L 82.572832 189.202561 L 80.506028 190.911552 L 78.571361 192.388286 L 76.717030 193.674002 L 74.891238 194.809937 L 73.042187 195.837330 L 71.007325 196.844373 L 69.009839 197.701795 L 67.019916 198.417165 L 65.007742 198.998052 L 62.943503 199.452026 L 60.797384 199.786654 L 58.539573 200.009506 L 56.140254 200.128150 L 53.945500 200.147334 L 51.811690 200.080750 L 49.738049 199.928120 L 47.723800 199.689166 L 45.768169 199.363609 L 43.870379 198.951171 L 42.029655 198.451572 L 40.245221 197.864535 L 38.516303 197.189781 L 36.842123 196.427030 L 35.221907 195.576006 L 33.654879 194.636429 L 32.140264 193.608020 L 30.677285 192.490501 L 29.265168 191.283594 L 27.903136 189.987020 L 26.946456 188.992750 L 26.044587 187.983418 L 25.196137 186.956199 L 24.399712 185.908267 L 23.653921 184.836797 L 22.957372 183.738964 L 22.308672 182.611942 L 21.706429 181.452906 L 21.149252 180.259031 L 20.635747 179.027492 L 20.164523 177.755462 L 19.734187 176.440117 L 19.343347 175.078632 L 18.990611 173.668181 L 18.674587 172.205939 L 18.393883 170.689080 L 18.225362 169.367060 L 18.105551 167.734000 L 18.034364 165.896035 L 18.011715 163.959302 L 18.037517 162.029940 L 18.111683 160.214084 L 18.234127 158.617872 L 18.404763 157.347440 L 18.671287 156.011561 L 18.981012 154.703212 L 19.334709 153.420919 L 19.733148 152.163210 L 20.177098 150.928611 L 20.667331 149.715650 L 21.204616 148.522853 L 21.789724 147.348746 L 22.423425 146.191858 L 23.106490 145.050714 L 23.839687 143.923841 L 24.623789 142.809767 L 25.459565 141.707018 L 26.347784 140.614121 L 27.289219 139.529602 L 28.284638 138.451990 L 29.570127 137.150553 L 30.835486 135.979237 L 32.123800 134.908042 L 33.478155 133.906966 L 34.941638 132.946011 L 36.557335 131.995175 L 38.368332 131.024458 L 40.417716 130.003860 L 47.139537 126.758250 L 49.286435 125.687952 L 49.920916 125.343751 L 50.131839 125.195230 L 49.501530 125.019077 L 48.100437 124.709920 L 46.761856 124.407150 L 45.438821 124.056821 L 44.132448 123.659534 L 42.843851 123.215893 L 41.574147 122.726499 L 40.324451 122.191954 L 39.095879 121.612860 L 37.889545 120.989819 L 36.706566 120.323433 L 35.548057 119.614304 L 34.415134 118.863034 L 33.308911 118.070225 L 32.230505 117.236479 L 31.181031 116.362398 L 30.161605 115.448585 L 29.173342 114.495640 L 27.529632 112.741825 L 26.004005 110.889911 L 24.599108 108.948598 L 23.317591 106.926585 L 22.162104 104.832571 L 21.135294 102.675256 L 20.239811 100.463338 L 19.478304 98.205517 L 18.853422 95.910492 L 18.367814 93.586962 L 18.024128 91.243627 L 17.825015 88.889185 L 17.773122 86.532336 L 17.871100 84.181778 L 18.121596 81.846213 L 18.527260 79.534337 L 18.993611 77.603925 L 19.569555 75.711365 L 20.252125 73.860448 L 21.038354 72.054966 L 21.925275 70.298711 L 22.909921 68.595476 L 23.989326 66.949052 L 25.160521 65.363231 L 26.420541 63.841805 L 27.766418 62.388566 L 29.195186 61.007306 L 30.703877 59.701817 L 32.289524 58.475892 L 33.949160 57.333321 L 35.679819 56.277897 L 37.478534 55.313412 L 38.815768 54.679992 L 40.189613 54.100392 L 41.596018 53.575190 L 43.030929 53.104962 L 44.490294 52.690288 L 45.970061 52.331744 L 47.466176 52.029908 L 48.974587 51.785359 L 50.491243 51.598673 L 52.012089 51.470429 L 53.533075 51.401203 L 55.050146 51.391575 L 56.559251 51.442121 L 58.056337 51.553419 L 59.537352 51.726047 L 60.998242 51.960583 L 62.778645 52.336001 L 64.569806 52.811615 L 66.371965 53.387571 L 68.185366 54.064017 L 70.010249 54.841098 L 71.846857 55.718961 L 73.695430 56.697752 L 75.556212 57.777618 L 77.429444 58.958705 L 79.315368 60.241159 L 81.214225 61.625128 L 83.126258 63.110756 L 85.051707 64.698191 L 86.990816 66.387580 L 88.943825 68.179068 L 90.910977 70.072802 L 92.526378 71.589516 L 93.047049 72.021646 L 93.273027 72.145607 L 93.255307 71.888694 L 93.112450 71.283798 L 92.546658 69.391528 L 91.839264 67.107765 L 91.238194 64.916529 L 90.735078 62.768877 L 90.321543 60.615865 L 89.989217 58.408551 L 89.729727 56.097989 L 89.534702 53.635237 L 89.395770 50.971351 L 89.304324 46.955655 L 89.365679 43.261644 L 89.452334 41.569178 L 89.575603 39.997824 L 89.734957 38.561145 L 89.929867 37.272704 L 90.325921 35.421706 L 90.859132 33.581397 L 91.524153 31.758423 L 92.315639 29.959428 L 93.228244 28.191057 L 94.256620 26.459955 L 95.395423 24.772767 L 96.639305 23.136137 L 97.982921 21.556712 L 99.420924 20.041135 L 100.947968 18.596052 L 102.558707 17.228107 L 104.247795 15.943946 L 106.009886 14.750213 L 107.839633 13.653553 L 109.731690 12.660611 L 111.687565 11.772419 L 113.672320 11.003611 L 115.681328 10.354171 L 117.709962 9.824084 L 119.753594 9.413335 L 121.807597 9.121908 L 123.867344 8.949788 L 125.928206 8.896960 L 127.985558 8.963408 L 130.034770 9.149117 L 132.071217 9.454073 L 134.090270 9.878258 L 136.087302 10.421659 L 138.057686 11.084260 L 139.996795 11.866046 L 141.900000 12.767001 L 143.892887 13.856390 L 145.783115 15.041332 L 147.577039 16.327366 L 149.281013 17.720031 L 150.901390 19.224863 L 152.444527 20.847402 L 153.916775 22.593186 L 155.324490 24.467752 L 156.523396 26.270410 L 157.590570 28.117723 L 158.529762 30.019649 L 159.344724 31.986144 L 160.039205 34.027166 L 160.616955 36.152671 L 161.081727 38.372617 L 161.437270 40.696960 L 161.575931 42.194374 L 161.664860 44.031383 L 161.705478 46.100018 L 161.699209 48.292307 L 161.647476 50.500282 L 161.551704 52.615971 L 161.413314 54.531405 L 161.233730 56.138613 L 160.726213 59.249433 L 160.059379 62.621379 L 159.302812 65.927956 L 158.526100 68.842668 L 157.890636 71.145743 L 157.720416 71.869435 L 157.685320 72.162647 L 157.991701 71.938949 L 158.751184 71.255208 L 161.171900 68.931667 L 163.743242 66.455135 L 166.141761 64.263065 L 168.407570 62.325247 L 170.580780 60.611474 L 172.701505 59.091536 L 174.809859 57.735226 L 176.945953 56.512335 L 179.149900 55.392655 L 181.284517 54.434436 L 183.392983 53.621110 L 185.499846 52.947256 L 187.629653 52.407455 L 189.806950 51.996288 L 192.056285 51.708333 L 194.402206 51.538172 L 196.869260 51.480384 L 199.262523 51.530126 L 201.538405 51.689156 L 203.718951 51.962281 L 205.826206 52.354309 L 207.882216 52.870047 L 209.909027 53.514303 L 211.928683 54.291883 L 213.963230 55.207594 L 215.820098 56.168300 L 217.591267 57.220814 L 219.275237 58.363098 L 220.870508 59.593116 L 222.375581 60.908830 L 223.788954 62.308201 L 225.109129 63.789193 L 226.334605 65.349768 L 227.463882 66.987889 L 228.495461 68.701517 L 229.427840 70.488615 L 230.259522 72.347146 L 230.989004 74.275072 L 231.614788 76.270356 L 232.135373 78.330959 L 232.549260 80.454845 L 232.728543 81.881399 L 232.851616 83.609241 L 232.919182 85.538501 L 232.931942 87.569307 L 232.890601 89.601789 L 232.795860 91.536079 L 232.648422 93.272304 L 232.448990 94.710595 L 232.204633 95.923485 L 231.905661 97.145791 L 231.554071 98.373593 L 231.151859 99.602974 L 230.701022 100.830015 L 230.203557 102.050796 L 229.661459 103.261401 L 229.076726 104.457911 L 228.451354 105.636406 L 227.787339 106.792969 L 227.086678 107.923681 L 226.351368 109.024623 L 225.583404 110.091878 L 224.784784 111.121526 L 223.957504 112.109650 L 223.103560 113.052330 L 221.626050 114.513629 L 220.001001 115.909572 L 218.188104 117.265076 L 216.147051 118.605059 L 213.837532 119.954439 L 211.219239 121.338134 L 208.251861 122.781061 L 204.895090 124.308140 L 200.843970 126.134350 L 200.845026 126.169947 L 200.923599 126.225510 L 201.284226 126.385276 L 202.615910 126.820530 L 204.335172 127.349701 L 206.023095 127.937487 L 207.678429 128.583319 L 209.299923 129.286626 L 210.886324 130.046838 L 212.436384 130.863385 L 213.948849 131.735696 L 215.422470 132.663200 L 217.498873 134.097941 L 219.349164 135.547696 L 221.153027 137.163196 L 223.090150 139.095170 L 224.093055 140.174067 L 225.042118 141.274786 L 225.937821 142.398327 L 226.780647 143.545692 L 227.571078 144.717880 L 228.309595 145.915890 L 228.996682 147.140724 L 229.632820 148.393381 L 230.218491 149.674862 L 230.754179 150.986167 L 231.240363 152.328295 L 231.677528 153.702247 L 232.066155 155.109024 L 232.406726 156.549625 L 232.699724 158.025050 L 232.945630 159.536300 L 233.095156 160.866270 L 233.188115 162.366282 L 233.225975 163.978104 L 233.210201 165.643503 L 233.142260 167.304244 L 233.023616 168.902097 L 232.855738 170.378826 L 232.640090 171.676200 L 232.178887 173.674585 L 231.609412 175.629838 L 230.934579 177.538128 L 230.157302 179.395622 L 229.280491 181.198489 L 228.307061 182.942897 L 227.239925 184.625014 L 226.081995 186.241009 L 224.836184 187.787049 L 223.505405 189.259302 L 222.092572 190.653938 L 220.600596 191.967123 L 219.032391 193.195027 L 217.390870 194.333817 L 215.678945 195.379662 L 213.899530 196.328730 L 211.867058 197.269719 L 209.836414 198.070623 L 207.787342 198.735947 L 205.699585 199.270199 L 203.552885 199.677884 L 201.326986 199.963508 L 199.001630 200.131578 L 196.556560 200.186600 L 194.359809 200.141290 L 192.229251 200.003286 L 190.157739 199.769475 L 188.138129 199.436746 L 186.163276 199.001986 L 184.226034 198.462085 L 182.319257 197.813929 L 180.435801 197.054408 L 178.568521 196.180408 L 176.710270 195.188819 L 174.853904 194.076528 L 172.992278 192.840423 L 171.118245 191.477393 L 169.224662 189.984325 L 167.304382 188.358108 L 165.350260 186.595630 L 160.544570 181.962690 L 158.446584 179.990378 L 157.808369 179.465713 L 157.634600 179.356081 L 157.573970 179.362470 L 157.697385 179.953883 L 157.994110 180.913110 L 158.521277 182.599301 L 159.061345 184.606435 L 159.595990 186.844564 L 160.106890 189.223739 L 160.575720 191.654010 L 160.984157 194.045430 L 161.313879 196.308050 L 161.546560 198.351920 L 161.657993 199.965164 L 161.717577 201.794248 L 161.727743 203.756904 L 161.690925 205.770865 L 161.609555 207.753862 L 161.486066 209.623627 L 161.322890 211.297892 L 161.122460 212.694390 L 160.724500 214.672345 L 160.242683 216.590958 L 159.676203 218.452284 L 159.024257 220.258381 L 158.286042 222.011306 L 157.460754 223.713114 L 156.547588 225.365863 L 155.545740 226.971610 L 154.712953 228.130097 L 153.700437 229.372657 L 152.550646 230.657098 L 151.306034 231.941233 L 150.009054 233.182869 L 148.702161 234.339817 L 147.427808 235.369888 L 146.228450 236.230890 L 144.156684 237.518026 L 142.036382 238.658341 L 139.863636 239.653186 L 137.634537 240.503906 L 135.345177 241.211852 L 132.991647 241.778370 L 130.570037 242.204810 L 128.076440 242.492520 L 126.336063 242.627986 L 125.013236 242.670948 L 123.664461 242.620095 L 121.846240 242.474120 L 121.846240 242.474110 Z" fill="#33ddaa" fill-opacity="1" /></svg>