<?xml version='1.0' encoding='utf-8'?>
<svg xmlns="http://www.w3.org/2000/svg" width="250" height="250" viewBox="0.000000 0.000000 66.145832 66.145835"><path id="face_3" d="M 36.411447 60.002745 L 38.245913 59.645211 L 40.001946 59.166350 L 41.681779 58.565044 L 43.287641 57.840175 L 44.821763 56.990624 L 46.286374 56.015273 L 47.683707 54.913003 L 49.015991 53.682696 L 50.193192 52.426402 L 51.250355 51.118636 L 52.191277 49.752194 L 53.019752 48.319877 L 53.739577 46.814481 L 54.354546 45.228805 L 54.868456 43.555648 L 55.285102 41.787807 L 55.504584 40.513050 L 55.633551 39.266676 L 55.676314 37.985218 L 55.637186 36.605207 L 55.543596 35.267478 L 55.410588 34.098748 L 55.222441 32.987404 L 54.963435 31.821834 L 54.579153 30.440730 L 54.110070 29.098281 L 53.558823 27.797306 L 52.928050 26.540628 L 52.220387 25.331065 L 51.438472 24.171438 L 50.584941 23.064568 L 49.662433 22.013275 L 48.673583 21.020380 L 47.621030 20.088703 L 46.507410 19.221064 L 45.335361 18.420284 L 44.107520 17.689184 L 42.826523 17.030583 L 41.495009 16.447302 L 40.115614 15.942161 L 38.554619 15.486060 L 36.948663 15.124401 L 35.447796 14.886159 L 34.202068 14.800306 L 33.677418 14.800306 L 33.677418 12.699374 L 33.677418 10.598442 L 37.535926 9.468376 L 41.471905 8.293909 L 41.490904 8.243040 L 41.427807 8.183089 L 37.016568 6.462245 L 32.703410 4.834334 L 32.663342 5.112490 L 32.644891 5.990149 L 32.671157 9.803108 L 32.734303 14.771882 L 31.552216 14.828473 L 30.044709 14.986241 L 28.334070 15.310330 L 26.544101 15.772920 L 24.798606 16.346188 L 23.650041 16.825277 L 22.309399 17.466080 L 21.015528 18.148619 L 20.007280 18.752918 L 18.993490 19.473472 L 18.028621 20.246538 L 17.113814 21.070152 L 16.250212 21.942345 L 15.438957 22.861150 L 14.681189 23.824602 L 13.978052 24.830732 L 13.330685 25.877574 L 12.740233 26.963161 L 12.207835 28.085526 L 11.734634 29.242702 L 11.321772 30.432722 L 10.970390 31.653619 L 10.681631 32.903426 L 10.456635 34.180176 L 10.296546 35.481902 L 10.242297 36.596402 L 10.244422 37.998037 L 10.297045 39.387352 L 10.394293 40.464890 L 10.603756 41.710404 L 10.871505 42.930119 L 11.196588 44.122484 L 11.578048 45.285945 L 12.014933 46.418952 L 12.506289 47.519950 L 13.051160 48.587389 L 13.648593 49.619716 L 14.297635 50.615378 L 14.997330 51.572823 L 15.746725 52.490499 L 16.544865 53.366853 L 17.390797 54.200334 L 18.283566 54.989388 L 19.222219 55.732464 L 20.205801 56.428010 L 21.263208 57.086861 L 22.381260 57.693737 L 23.552994 58.246023 L 24.771450 58.741103 L 26.029664 59.176362 L 27.320677 59.549186 L 28.637527 59.856959 L 29.973251 60.097066 L 31.254909 60.178991 L 33.126441 60.185140 L 35.030927 60.123672 L 36.411447 60.002745 L 36.411447 60.002745 Z M 30.634709 58.271168 L 29.249992 58.057292 L 27.748050 57.703825 L 26.227948 57.237635 L 24.788750 56.685592 L 23.728122 56.192510 L 22.703331 55.639797 L 21.716261 55.029691 L 20.768801 54.364432 L 19.862834 53.646259 L 19.000247 52.877413 L 18.182927 52.060132 L 17.412758 51.196656 L 16.691627 50.289224 L 16.021419 49.340076 L 15.404021 48.351452 L 14.841318 47.325591 L 14.335197 46.264732 L 13.887543 45.171115 L 13.500242 44.046979 L 13.175180 42.894564 L 12.867126 41.547223 L 12.678080 40.350138 L 12.583441 39.090244 L 12.558607 37.554474 L 12.585769 36.023831 L 12.680371 34.782947 L 12.867689 33.615935 L 13.172995 32.306903 L 13.471138 31.227472 L 13.786000 30.276478 L 14.156003 29.348509 L 14.619569 28.338153 L 15.268146 27.088324 L 15.974081 25.916121 L 16.740596 24.817829 L 17.570919 23.789733 L 18.468273 22.828119 L 19.435885 21.929272 L 20.476979 21.089479 L 21.594780 20.305025 L 23.039672 19.444466 L 24.571299 18.693047 L 26.166725 18.057045 L 27.803020 17.542737 L 29.457248 17.156401 L 31.106478 16.904312 L 32.727775 16.792748 L 34.298207 16.827987 L 35.884639 16.988774 L 37.262624 17.249058 L 38.620087 17.654580 L 40.144953 18.251080 L 41.489917 18.861959 L 42.752265 19.521791 L 43.934356 20.232319 L 45.038544 20.995289 L 46.067184 21.812446 L 47.022633 22.685535 L 47.907245 23.616301 L 48.723377 24.606490 L 49.468988 25.645132 L 50.149623 26.731376 L 50.764320 27.862985 L 51.312118 29.037724 L 51.792055 30.253357 L 52.203171 31.507648 L 52.544503 32.798360 L 52.815090 34.123257 L 52.968419 35.418195 L 53.056031 37.016756 L 53.068786 38.626769 L 52.997544 39.956065 L 52.862157 40.990829 L 52.678484 42.010796 L 52.447342 43.014444 L 52.169551 44.000254 L 51.845930 44.966706 L 51.477297 45.912278 L 51.064471 46.835451 L 50.608271 47.734704 L 50.109517 48.608517 L 49.569026 49.455370 L 48.987617 50.273742 L 48.366110 51.062113 L 47.705324 51.818963 L 47.006076 52.542771 L 46.269187 53.232017 L 45.495474 53.885181 L 44.692718 54.494510 L 43.848187 55.070630 L 42.969145 55.609767 L 42.062858 56.108146 L 41.136590 56.561991 L 40.197606 56.967528 L 39.253172 57.320981 L 38.310552 57.618576 L 37.449479 57.835390 L 36.516158 58.017316 L 35.532654 58.162478 L 34.521034 58.269000 L 33.503363 58.335006 L 32.501708 58.358620 L 31.538135 58.337967 L 30.634709 58.271168 L 30.634709 58.271168 Z" fill="#f4b600" fill-opacity="1" /><path id="face_4" d="M 34.583370 57.739189 L 35.495692 57.257012 L 36.387412 56.738133 L 37.256910 56.184171 L 38.102567 55.596745 L 38.922763 54.977473 L 39.715880 54.327974 L 40.480296 53.649867 L 41.214394 52.944771 L 41.916553 52.214304 L 42.585154 51.460084 L 43.218577 50.683731 L 43.815204 49.886863 L 44.373414 49.071099 L 44.891588 48.238057 L 45.368107 47.389357 L 45.801351 46.526616 L 46.297666 45.406449 L 46.723872 44.291316 L 47.081183 43.175892 L 47.370810 42.054851 L 47.593966 40.922867 L 47.751862 39.774615 L 47.845710 38.604768 L 47.876724 37.408000 L 47.821754 35.861678 L 47.656708 34.346929 L 47.381384 32.863091 L 46.995579 31.409503 L 46.499090 29.985503 L 45.891714 28.590428 L 45.173248 27.223619 L 44.343489 25.884412 L 43.422113 24.601572 L 42.417425 23.387578 L 41.328249 22.241420 L 40.153411 21.162090 L 38.891736 20.148579 L 37.542048 19.199876 L 36.103174 18.314974 L 34.573937 17.492863 L 33.545367 17.019991 L 34.227053 17.975306 L 35.503110 19.743188 L 36.657348 21.559234 L 37.688795 23.417734 L 38.596479 25.312978 L 39.379428 27.239256 L 40.036669 29.190857 L 40.567232 31.162070 L 40.970144 33.147186 L 41.244432 35.140494 L 41.389125 37.136284 L 41.403251 39.128845 L 41.285838 41.112467 L 41.035914 43.081440 L 40.652507 45.030054 L 40.134644 46.952597 L 39.481355 48.843361 L 39.027410 49.920646 L 38.449452 51.147774 L 37.829340 52.358199 L 37.248933 53.385375 L 36.598800 54.412531 L 35.901736 55.407845 L 35.065935 56.496105 L 33.999593 57.802099 L 33.803113 58.103777 L 34.583370 57.739189 L 34.583370 57.739189 Z" fill="#f4b600" fill-opacity="1" /><path id="face_5" d="M 32.619084 58.151209 L 32.123938 57.555897 L 30.751702 55.918042 L 29.480836 54.196220 L 28.319999 52.406869 L 27.277849 50.566428 L 26.363043 48.691335 L 25.584241 46.798028 L 24.950100 44.902946 L 24.469278 43.022527 L 24.187621 41.609929 L 24.025294 40.429834 L 23.950913 39.157023 L 23.933094 37.466277 L 23.951886 35.758577 L 24.028305 34.469065 L 24.192413 33.289097 L 24.474270 31.910028 L 24.961276 30.039346 L 25.586555 28.191660 L 26.347925 26.370986 L 27.243208 24.581346 L 28.270223 22.826760 L 29.426789 21.111246 L 30.710728 19.438824 L 32.119858 17.813514 L 32.597012 17.271640 L 32.795474 17.001043 L 32.498126 17.081886 L 31.741638 17.422880 L 29.664572 18.496771 L 28.597333 19.117595 L 27.575473 19.764636 L 26.599463 20.437368 L 25.669770 21.135263 L 24.786864 21.857793 L 23.951213 22.604433 L 23.163287 23.374653 L 22.423554 24.167928 L 21.732482 24.983729 L 21.090542 25.821531 L 20.498201 26.680804 L 19.955929 27.561022 L 19.464194 28.461658 L 19.023466 29.382185 L 18.634212 30.322075 L 18.296902 31.280801 L 17.932652 32.595165 L 17.670380 33.948146 L 17.510138 35.329371 L 17.451979 36.728468 L 17.495955 38.135066 L 17.642119 39.538793 L 17.890523 40.929275 L 18.241219 42.296143 L 18.607513 43.411526 L 19.037974 44.511872 L 19.530989 45.595273 L 20.084946 46.659823 L 20.698235 47.703616 L 21.369243 48.724744 L 22.096358 49.721301 L 22.877969 50.691380 L 23.712464 51.633076 L 24.598232 52.544480 L 25.533659 53.423687 L 26.517136 54.268790 L 27.547049 55.077882 L 28.621787 55.849057 L 29.739739 56.580407 L 30.899293 57.270028 L 32.222209 58.023354 L 32.522962 58.173428 L 32.595441 58.183481 L 32.619084 58.151209 Z" fill="#f4b600" fill-opacity="1" /><path id="face_6" d="M 33.478980 57.508465 L 33.860483 56.570843 L 34.220314 55.515522 L 34.556807 54.349853 L 34.868299 53.081187 L 35.153124 51.716874 L 35.409618 50.264267 L 35.636115 48.730714 L 35.830951 47.123569 L 36.026006 45.069572 L 36.170710 42.976522 L 36.266243 40.859578 L 36.313784 38.733903 L 36.314512 36.614658 L 36.269608 34.517005 L 36.180250 32.456104 L 36.047618 30.447117 L 35.872892 28.505206 L 35.657251 26.645532 L 35.401874 24.883256 L 35.107942 23.233540 L 34.776633 21.711545 L 34.409126 20.332433 L 34.006602 19.111364 L 33.570240 18.063501 L 33.215183 17.313848 L 32.881567 18.013699 L 32.421623 19.120880 L 31.992573 20.445420 L 31.595567 21.981221 L 31.231755 23.722179 L 30.902284 25.662196 L 30.608304 27.795169 L 30.350964 30.114999 L 30.131414 32.615584 L 30.045165 35.066984 L 30.016490 38.668590 L 30.045343 42.253329 L 30.131678 44.654125 L 30.467168 48.005885 L 30.898364 50.918593 L 31.153275 52.229549 L 31.436221 53.453839 L 31.748572 54.599161 L 32.091696 55.673214 L 32.729309 57.316778 L 32.995502 57.884608 L 33.148629 58.103777 L 33.272091 57.928904 L 33.478893 57.508465 L 33.478980 57.508465 Z" fill="#f4b600" fill-opacity="1" /><path id="face_7" d="M 31.472558 63.607756 L 31.472565 63.607756 L 34.183769 63.596577 L 36.808330 63.474525 L 38.327336 63.283837 L 39.811072 63.006374 L 41.258067 62.643124 L 42.666849 62.195074 L 44.035949 61.663209 L 45.363894 61.048516 L 46.649215 60.351983 L 47.890440 59.574596 L 49.086099 58.717341 L 50.234720 57.781205 L 51.334832 56.767176 L 52.384965 55.676239 L 53.383647 54.509382 L 54.329408 53.267590 L 55.220777 51.951852 L 56.056283 50.563152 L 56.548122 49.638407 L 57.017146 48.644882 L 57.457969 47.597816 L 57.865204 46.512446 L 58.233465 45.404011 L 58.557365 44.287750 L 58.831517 43.178900 L 59.050536 42.092700 L 59.124513 41.469868 L 59.177192 40.604937 L 59.218767 38.441087 L 59.175486 36.185760 L 59.047572 34.423569 L 58.749478 32.514916 L 58.357864 30.707295 L 57.868015 28.988982 L 57.275216 27.348252 L 56.574752 25.773383 L 55.761907 24.252649 L 54.831967 22.774328 L 53.780216 21.326695 L 52.634451 19.985572 L 51.258853 18.591668 L 49.778306 17.263986 L 48.317697 16.121528 L 47.437538 15.521627 L 46.502466 14.941118 L 45.536138 14.391738 L 44.562213 13.885225 L 43.604349 13.433315 L 42.686203 13.047748 L 41.831436 12.740260 L 41.063703 12.522589 L 40.643264 12.408080 L 40.468391 12.329825 L 40.656217 12.233711 L 41.107801 12.076266 L 41.890640 11.789055 L 42.639312 11.441432 L 43.273665 11.074791 L 43.713548 10.730526 L 44.060113 10.315290 L 44.331695 9.851906 L 44.526761 9.351031 L 44.643772 8.823320 L 44.681195 8.279431 L 44.637492 7.730019 L 44.511128 7.185741 L 44.300568 6.657253 L 44.025440 6.218958 L 43.646222 5.779412 L 43.215558 5.392346 L 42.786090 5.111490 L 41.200573 4.434759 L 38.407779 3.311688 L 35.656227 2.237151 L 34.194435 1.706020 L 33.595824 1.600508 L 33.007336 1.566349 L 32.435785 1.601798 L 31.887984 1.705109 L 31.370747 1.874540 L 30.890889 2.108343 L 30.455222 2.404775 L 30.070562 2.762090 L 29.669583 3.252961 L 29.541415 3.494449 L 29.452311 3.772227 L 29.363840 4.553417 L 29.349263 5.830061 L 29.412022 9.648942 L 29.470024 11.597231 L 28.796170 11.654193 L 27.972158 11.755754 L 27.084745 11.924891 L 26.143957 12.158364 L 25.159818 12.452934 L 24.142353 12.805358 L 23.101586 13.212398 L 22.047542 13.670813 L 20.990246 14.177361 L 18.903379 15.299317 L 17.955810 15.872381 L 17.065704 16.460180 L 16.228226 17.067722 L 15.438539 17.700016 L 14.691810 18.362069 L 13.983202 19.058890 L 13.307881 19.795487 L 12.661012 20.576867 L 12.037758 21.408040 L 11.433285 22.294013 L 10.842758 23.239794 L 10.261341 24.250392 L 9.106497 26.486069 L 8.419075 28.028991 L 7.877535 29.552244 L 7.445727 31.172584 L 7.087499 33.006765 L 6.883410 34.412917 L 6.758100 35.787664 L 6.704356 37.245070 L 6.714969 38.899197 L 6.818374 40.956911 L 6.915875 41.883821 L 7.049379 42.774261 L 7.222990 43.651851 L 7.440810 44.540213 L 8.025491 46.443735 L 8.473636 47.664601 L 8.975333 48.850868 L 9.529392 50.001193 L 10.134627 51.114231 L 10.789849 52.188638 L 11.493869 53.223070 L 12.245500 54.216183 L 13.043554 55.166633 L 13.886842 56.073075 L 14.774176 56.934166 L 15.704368 57.748560 L 16.676231 58.514915 L 17.688575 59.231886 L 18.740213 59.898129 L 19.829957 60.512299 L 20.956618 61.073053 L 22.292482 61.665466 L 23.571172 62.166834 L 24.818221 62.583311 L 26.059165 62.921054 L 27.319537 63.186214 L 28.624870 63.384949 L 30.000699 63.523411 L 31.472558 63.607756 Z M 30.634709 62.902660 L 29.532281 62.771040 L 28.591955 62.642116 L 27.644015 62.469119 L 25.737407 61.996493 L 23.836697 61.364329 L 21.966124 60.583791 L 20.149927 59.666045 L 18.412346 58.622258 L 16.777620 57.463594 L 16.006403 56.844673 L 15.269988 56.201219 L 14.595284 55.548261 L 13.938249 54.838356 L 13.300780 54.075287 L 12.684777 53.262835 L 12.092138 52.404781 L 11.524761 51.504909 L 10.984546 50.566999 L 10.473390 49.594835 L 9.993192 48.592196 L 9.545851 47.562867 L 9.133266 46.510627 L 8.757333 45.439260 L 8.419953 44.352547 L 8.123024 43.254270 L 7.868444 42.148212 L 7.658112 41.038152 L 7.554676 40.351301 L 7.502215 39.696249 L 7.509225 37.510376 L 7.562105 35.857030 L 7.666901 34.512218 L 7.849050 33.244350 L 8.133987 31.821834 L 8.496162 30.332309 L 8.910663 29.024482 L 9.449625 27.699143 L 10.185180 26.157077 L 11.278013 24.103194 L 11.827308 23.178754 L 12.385864 22.315454 L 12.959188 21.507897 L 13.552786 20.750689 L 14.172164 20.038434 L 14.822830 19.365735 L 15.510289 18.727196 L 16.240048 18.117423 L 17.017614 17.531018 L 17.848492 16.962587 L 19.692214 15.858061 L 21.815266 14.760678 L 23.987951 13.779102 L 24.994529 13.384387 L 25.950665 13.052838 L 26.858409 12.783796 L 27.719811 12.576599 L 28.536922 12.430587 L 29.311793 12.345100 L 30.105543 12.286765 L 30.070737 8.181838 L 30.055489 5.513783 L 30.115871 4.122654 L 30.196455 3.737070 L 30.322383 3.468078 L 30.745525 3.009679 L 31.155235 2.685736 L 31.623760 2.457041 L 32.157083 2.321419 L 32.761184 2.276695 L 33.302308 2.307069 L 33.975021 2.471334 L 35.129769 2.879208 L 37.117001 3.640409 L 39.512966 4.583874 L 41.225170 5.299833 L 42.329390 5.821586 L 42.901404 6.182436 L 43.251052 6.564627 L 43.522561 7.019968 L 43.707522 7.530658 L 43.797521 8.078894 L 43.804737 8.483480 L 43.766265 8.858560 L 43.681110 9.206095 L 43.548278 9.528048 L 43.366775 9.826380 L 43.135605 10.103055 L 42.853776 10.360034 L 42.520293 10.599280 L 41.946570 10.932269 L 41.290361 11.223136 L 40.410925 11.526326 L 39.167522 11.896284 L 38.030779 12.239950 L 37.557974 12.419156 L 38.004872 12.587333 L 39.079328 12.904485 L 41.570833 13.664919 L 42.655719 14.056355 L 43.664365 14.468782 L 44.620025 14.912333 L 45.545955 15.397140 L 46.465408 15.933338 L 47.401638 16.531060 L 48.348544 17.204282 L 49.273396 17.950735 L 50.172683 18.764921 L 51.042889 19.641347 L 51.880503 20.574514 L 52.682009 21.558927 L 53.443894 22.589091 L 54.162644 23.659508 L 54.834747 24.764684 L 55.456688 25.899121 L 56.024954 27.057323 L 56.536030 28.233796 L 56.986404 29.423041 L 57.372562 30.619565 L 57.690990 31.817869 L 57.938174 33.012459 L 58.097208 34.362390 L 58.171913 36.592478 L 58.183631 38.268378 L 58.147832 39.749284 L 58.057582 41.079759 L 57.905946 42.304365 L 57.685989 43.467666 L 57.390777 44.614227 L 57.013375 45.788608 L 56.546847 47.035375 L 56.014523 48.317212 L 55.468809 49.500475 L 54.901808 50.597942 L 54.305619 51.622390 L 53.672343 52.586599 L 52.994079 53.503344 L 52.262929 54.385403 L 51.470993 55.245555 L 50.714306 55.996223 L 49.929111 56.712503 L 49.116638 57.393772 L 48.278118 58.039403 L 47.414781 58.648774 L 46.527856 59.221258 L 45.618574 59.756232 L 44.688164 60.253071 L 43.737858 60.711151 L 42.768886 61.129846 L 41.782476 61.508532 L 40.779860 61.846585 L 39.762267 62.143380 L 38.730929 62.398292 L 37.687074 62.610697 L 36.631932 62.779970 L 35.476210 62.849784 L 33.569101 62.904189 L 31.694101 62.927157 L 30.634709 62.902660 L 30.634709 62.902660 Z" fill="#f4b600" fill-opacity="1" /></svg>