<?xml version='1.0' encoding='utf-8'?>
<svg xmlns="http://www.w3.org/2000/svg" width="250" height="250" viewBox="0 0 43 43" fill="none"><g transform="translate(-38 -24)"><path d="M 64.972,45.501 L 70.252,37.381 A 5.138,5.138 0.0 0,1 73.42699999999999,38.868 L 81.0,45.508 L 73.42699999999999,52.148 A 5.126,5.126 0.0 0,1 70.25999999999999,53.632000000000005 L 64.972,45.502 L 64.972,45.501 M 48.74199999999999,37.370999999999995 A 5.114,5.114 0.0 0,0 45.57499999999999,38.85399999999999 L 38.0,45.494 L 45.573,52.134 A 5.138,5.138 0.0 0,0 48.748,53.622 L 54.028,45.502 L 48.739999999999995,37.370000000000005 L 48.742999999999995,37.370000000000005 L 48.74199999999999,37.370999999999995 M 67.621,34.748 A 5.14,5.14 0.0 0,0 66.133,31.572999999999997 L 59.493,24.0 L 52.853,31.573 A 5.128,5.128 0.0 0,0 51.370000000000005,34.741 L 59.50000000000001,40.028999999999996 L 67.62,34.748999999999995 L 67.621,34.748 M 51.379,56.252 A 5.14,5.14 0.0 0,0 52.867,59.427 L 59.507,67.0 L 66.14699999999999,59.427 A 5.128,5.128 0.0 0,0 67.63,56.259 L 59.49999999999999,50.971000000000004 L 51.379999999999995,56.251000000000005 L 51.379,56.252 M 70.257,53.632000000000005 C 68.849,53.761 66.287,52.289 66.287,52.289 C 66.287,52.289 67.759,54.851 67.63000000000001,56.259 L 78.11900000000001,64.749 C 79.01000000000002,65.432 79.39600000000002,65.04899999999999 78.74600000000001,64.121 L 70.257,53.63199999999999 L 70.257,53.632000000000005 M 66.13300000000001,38.86800000000001 C 66.13300000000001,38.86800000000001 68.77900000000001,37.24700000000001 70.25000000000001,37.38000000000001 L 78.74400000000001,26.881000000000007 C 79.42700000000002,25.98700000000001 79.04400000000001,25.604000000000006 78.11600000000001,26.25400000000001 L 67.61800000000001,34.748000000000005 C 67.751,36.21900000000001 66.13000000000001,38.86600000000001 66.13000000000001,38.86600000000001 L 66.13300000000001,38.86800000000001 M 52.71300000000001,38.71300000000001 C 52.71300000000001,38.71300000000001 51.24100000000001,36.15100000000001 51.370000000000005,34.74300000000001 L 40.881,26.253000000000007 C 39.99,25.570000000000007 39.604,25.953000000000007 40.254,26.881000000000007 L 48.742999999999995,37.37100000000001 C 50.150999999999996,37.24200000000001 52.712999999999994,38.71300000000001 52.712999999999994,38.71300000000001 L 52.71300000000001,38.71300000000001 M 52.86700000000001,52.13400000000001 C 52.86700000000001,52.13400000000001 50.22100000000001,53.75600000000001 48.750000000000014,53.62200000000001 L 40.256000000000014,64.12100000000001 C 39.573000000000015,65.01500000000001 39.95600000000002,65.39800000000001 40.884000000000015,64.74900000000001 L 51.38200000000001,56.25400000000001 C 51.24900000000001,54.78400000000001 52.87000000000001,52.137000000000015 52.87000000000001,52.137000000000015 L 52.86700000000001,52.134000000000015 L 52.86700000000001,52.13400000000001" fill="#aa22ee" fill-rule="evenodd" clip-rule="evenodd" /></g></svg>