<?xml version='1.0' encoding='utf-8'?>
<svg xmlns="http://www.w3.org/2000/svg" width="250" height="250" viewBox="0 0 60.0007 60.0007" fill="none"><g transform="translate(-29.9998 -10.4974)"><path d="M 79.466,45.835 C 79.59899999999999,42.608000000000004 78.54299999999999,39.352000000000004 76.36,36.433 C 74.106,33.416 70.853,31.055 67.06,29.637 L 68.769,26.275 A 3.731,3.731 0.0 0,0 73.50200000000001,21.576999999999998 A 3.74,3.74 0.0 0,0 68.787,19.185 A 3.731,3.731 0.0 0,0 67.081,25.127 L 63.896,28.707 C 59.544,27.76 55.126000000000005,28.114 51.351,29.737000000000002 C 48.001,31.177000000000003 45.455,33.47 43.958,36.33 C 36.19,35.796 30.778,36.833 30.076,39.449999999999996 C 29.54,41.452 31.859,44.031 36.114000000000004,46.66499999999999 A 6.195,6.195 0.0 0,0 46.318000000000005,51.61099999999999 C 47.918000000000006,52.23899999999999 49.606,52.84799999999999 51.362,53.43099999999999 A 7.174,7.174 0.0 0,0 64.492,56.94499999999999 C 66.305,57.31799999999999 68.074,57.63399999999999 69.772,57.888999999999996 A 6.2,6.2 0.0 0,0 81.084,58.702 C 86.08500000000001,58.547999999999995 89.387,57.47 89.924,55.467999999999996 C 90.625,52.854 86.45800000000001,49.251999999999995 79.46300000000001,45.831999999999994 L 79.46600000000001,45.834999999999994 L 79.466,45.835 M 75.966,47.867000000000004 C 75.86999999999999,48.218 75.753,48.56100000000001 75.622,48.896 C 70.829,49.197 65.505,48.683 60.066,47.228 C 54.626000000000005,45.772 49.758,43.558 45.760000000000005,40.9 A 9.66,9.66 0.0 0,1 45.97800000000001,39.839 C 47.72800000000001,33.309 55.861000000000004,29.814 64.144,32.031 C 72.424,34.248 77.718,41.338 75.968,47.867 L 75.965,47.867 L 75.966,47.867000000000004" fill="#ec7384" fill-rule="evenodd" clip-rule="evenodd" /></g></svg>