<?xml version='1.0' encoding='utf-8'?>
<svg xmlns="http://www.w3.org/2000/svg" width="250" height="250" viewBox="-2.800000 0.800000 44.000000 44.000000"><path id="face_1" d="M 22.028545 22.716054 L 21.618984 22.136211 L 21.165712 21.581438 L 20.673918 21.053328 L 20.148791 20.553472 L 19.019293 19.644896 L 17.818728 18.868444 L 16.588607 18.236854 L 15.370438 17.762861 L 14.205733 17.459201 L 13.656400 17.375226 L 13.136000 17.338611 L 11.825503 17.330600 L 10.694956 17.375527 L 9.710453 17.481146 L 8.838092 17.655209 L 8.043970 17.905467 L 7.294184 18.239675 L 6.554829 18.665584 L 5.792002 19.190946 L 4.823165 19.995345 L 4.027431 20.825770 L 3.399693 21.647113 L 2.934843 22.424267 L 2.627775 23.122123 L 2.473380 23.705574 L 2.466552 24.139512 L 2.516880 24.289442 L 2.602184 24.388829 L 2.953968 24.449517 L 3.406593 24.449075 L 4.252730 24.445535 L 4.959612 24.597355 L 5.575107 24.830797 L 6.115624 25.121166 L 6.597570 25.443762 L 7.451386 26.086851 L 7.856071 26.357947 L 8.267821 26.562482 L 8.683825 26.702822 L 8.968780 26.744261 L 9.138551 26.702195 L 9.209002 26.592017 L 9.195998 26.429121 L 9.115405 26.228903 L 8.814910 25.778075 L 8.610931 25.502161 L 8.422721 25.172215 L 8.111487 24.381292 L 7.916959 23.467435 L 7.874632 22.983823 L 7.874888 22.492777 L 7.922196 22.002063 L 8.021024 21.519447 L 8.175842 21.052697 L 8.391118 20.609578 L 8.671322 20.197857 L 9.020921 19.825299 L 9.444386 19.499672 L 9.946184 19.228742 L 9.528475 19.976972 L 9.191614 20.501043 L 8.953855 21.048149 L 8.877845 21.407589 L 8.833456 21.865486 L 8.875726 22.746155 L 9.008189 23.538112 L 9.218455 24.251880 L 9.494138 24.897978 L 9.822849 25.486929 L 10.192200 26.029254 L 11.003274 27.016111 L 11.368859 27.318809 L 11.839849 27.582412 L 12.406029 27.797064 L 13.057184 27.952909 L 13.783101 28.040089 L 14.573564 28.048746 L 15.418360 27.969025 L 16.307274 27.791068 L 16.267143 28.124782 L 16.283531 28.483221 L 16.352974 28.859213 L 16.472009 29.245589 L 16.637173 29.635177 L 16.845001 30.020805 L 17.374796 30.751499 L 17.689836 31.082222 L 18.033685 31.380302 L 18.402880 31.638567 L 18.793958 31.849847 L 19.203454 32.006969 L 19.627906 32.102764 L 20.063848 32.130059 L 20.507818 32.081684 L 20.225254 32.306655 L 19.905962 32.458529 L 19.570586 32.550155 L 19.239775 32.594380 L 18.674428 32.592017 L 18.375093 32.554219 L 17.964321 32.427391 L 17.516058 32.166887 L 17.058883 31.803829 L 16.621378 31.369337 L 16.232120 30.894532 L 15.919691 30.410534 L 15.712670 29.948465 L 15.639637 29.539446 L 15.416078 30.433866 L 15.311616 31.435492 L 15.341028 32.445977 L 15.410555 32.923809 L 15.519093 33.366976 L 15.885981 34.128035 L 16.336541 34.881895 L 16.844911 35.599208 L 17.385228 36.250624 L 17.931631 36.806795 L 18.458257 37.238370 L 18.939243 37.516002 L 19.154540 37.587917 L 19.348728 37.610340 L 19.752491 37.490508 L 20.073451 37.342767 L 20.321823 37.176420 L 20.507821 37.000770 L 20.733554 36.658773 L 20.832365 36.391200 L 21.059692 35.385735 L 21.273979 34.726697 L 21.608232 34.122591 L 22.195457 33.281921 L 22.900039 32.350733 L 23.330732 31.644922 L 23.742843 30.808203 L 24.083235 29.862506 L 24.209931 29.355643 L 24.298771 28.829759 L 24.343114 28.287594 L 24.336315 27.731891 L 24.271734 27.165389 L 24.142729 26.590830 L 24.785499 27.491322 L 25.305152 28.143844 L 25.748088 28.590149 L 26.160706 28.871990 L 26.589407 29.031120 L 27.080590 29.109291 L 28.436002 29.189770 L 29.501732 29.128986 L 30.421090 29.119923 L 31.209399 29.156711 L 31.881980 29.233480 L 32.454154 29.344360 L 32.941244 29.483482 L 33.721458 29.822970 L 33.957187 29.895630 L 34.278979 29.922214 L 34.609465 29.892091 L 34.871275 29.794630 L 35.071943 29.503431 L 35.315207 28.974783 L 35.415052 28.616986 L 35.480232 28.194511 L 35.495644 27.705586 L 35.446183 27.148438 L 35.192813 25.866816 L 34.864030 24.761398 L 34.460051 23.826757 L 33.981093 23.057467 L 33.713565 22.733132 L 33.427374 22.448100 L 33.122547 22.201692 L 32.799111 21.993230 L 32.457093 21.822036 L 32.096521 21.687431 L 31.319822 21.525274 L 31.623368 22.115610 L 31.852641 22.671171 L 32.013129 23.192177 L 32.110321 23.678851 L 32.149703 24.131413 L 32.136762 24.550087 L 32.076988 24.935092 L 31.975866 25.286650 L 31.838885 25.604983 L 31.671532 25.890313 L 31.267661 26.362847 L 30.808154 26.706025 L 30.336910 26.921619 L 30.726093 26.273675 L 31.009328 25.537241 L 31.164121 24.747868 L 31.186322 24.344439 L 31.167978 23.941107 L 31.106277 23.542316 L 30.998407 23.152510 L 30.841556 22.776132 L 30.632913 22.417626 L 30.369666 22.081436 L 30.049004 21.772006 L 29.668113 21.493780 L 29.224184 21.251202 L 29.945609 20.793896 L 30.516860 20.335814 L 30.958148 19.876182 L 31.289684 19.414224 L 31.531681 18.949165 L 31.704349 18.480229 L 31.922547 17.527628 L 31.985084 16.585494 L 31.974272 15.800957 L 31.905433 15.153529 L 31.793889 14.622722 L 31.503971 13.829011 L 31.227094 13.255916 L 30.987306 12.794604 L 30.671888 12.301395 L 30.281709 11.836539 L 29.817638 11.460282 L 29.296337 11.215894 L 28.616820 11.085799 L 27.728667 11.081516 L 26.581457 11.214565 L 26.939906 10.932521 L 27.473958 10.666426 L 27.820417 10.558740 L 28.227076 10.478298 L 28.699369 10.432853 L 29.242729 10.430157 L 29.890516 10.553016 L 30.258038 10.687984 L 30.641752 10.902692 L 31.031986 11.220177 L 31.419068 11.663473 L 31.793328 12.255618 L 32.145094 13.019648 L 32.478910 13.879661 L 32.711001 14.179831 L 32.936029 14.287518 L 33.146061 14.236166 L 33.333165 14.059224 L 33.489407 13.790138 L 33.606856 13.462354 L 33.677577 13.109318 L 33.693639 12.764479 L 33.674224 11.962203 L 33.691320 10.903873 L 33.761916 10.345968 L 33.899667 9.804786 L 34.123916 9.307240 L 34.454004 8.880243 L 35.198139 8.199792 L 35.510225 7.819697 L 35.580531 7.654568 L 35.566731 7.519342 L 35.479375 7.423580 L 35.306895 7.338450 L 34.743340 7.200971 L 33.949634 7.108679 L 32.999343 7.063346 L 31.966031 7.066742 L 30.923266 7.120640 L 29.944613 7.226813 L 29.103639 7.387032 L 28.339900 7.665089 L 27.559386 7.994535 L 26.774878 8.383785 L 25.999158 8.841258 L 25.245009 9.375370 L 24.525211 9.994538 L 23.852547 10.707180 L 23.239797 11.521711 L 22.699745 12.446551 L 22.245170 13.490114 L 21.888856 14.660819 L 21.643584 15.967082 L 21.522135 17.417321 L 21.537291 19.019953 L 21.701834 20.783394 L 22.028545 22.716054 Z M 22.028546 22.716061 L 22.028545 22.716054 L 22.028546 22.716056 L 22.028546 22.716061 Z" fill="#2dc1f7" fill-opacity="1" /><path id="face_3" d="M 32.859201 4.633382 L 31.893896 4.638949 L 31.892042 4.638949 L 30.500745 4.748079 L 29.150200 4.981326 L 27.848513 5.333142 L 26.603791 5.797977 L 25.424143 6.370285 L 24.317674 7.044516 L 23.292493 7.815123 L 22.356708 8.676557 L 21.635284 9.485495 L 20.997655 10.356218 L 20.447516 11.283654 L 19.988561 12.262732 L 19.624483 13.288382 L 19.358978 14.355533 L 19.195739 15.459114 L 19.138462 16.594054 L 18.544191 16.264116 L 17.936766 15.976287 L 16.694932 15.517228 L 15.437919 15.197412 L 14.190686 14.997374 L 12.978192 14.897652 L 11.825394 14.878780 L 10.757252 14.921294 L 9.798725 15.005731 L 9.292484 15.062459 L 8.740499 15.172231 L 8.149123 15.336173 L 7.524707 15.555410 L 6.873604 15.831070 L 6.202165 16.164276 L 5.516743 16.556156 L 4.823689 17.007835 L 4.131252 17.522081 L 3.450893 18.101163 L 2.792442 18.746388 L 2.165728 19.459064 L 1.580581 20.240500 L 1.046831 21.092002 L 0.574306 22.014878 L 0.172837 23.010437 L 0.129371 23.199700 L 0.127563 23.199700 L 0.106315 23.944461 L 0.203231 24.657409 L 0.419425 25.320157 L 0.756007 25.914324 L 0.970723 26.174038 L 1.219618 26.403272 L 1.498394 26.597823 L 1.802755 26.753492 L 2.128404 26.866077 L 2.471042 26.931376 L 2.826372 26.945189 L 3.190098 26.903314 L 3.199154 26.903314 L 3.210021 26.903314 L 3.586725 26.912624 L 4.325646 27.062921 L 4.766249 27.223137 L 5.239936 27.448774 L 5.735056 27.747752 L 6.239957 28.127989 L 6.243582 28.129889 L 6.245391 28.131789 L 6.252633 28.135494 L 6.806909 28.573787 L 7.371266 28.881254 L 7.926096 29.079050 L 8.451795 29.188332 L 8.928757 29.230257 L 9.337377 29.225981 L 9.871170 29.163452 L 9.930935 29.150465 L 9.932743 29.150465 L 9.963532 29.152366 L 10.054085 29.167214 L 10.117473 29.208037 L 10.119281 29.209937 L 10.124715 29.215542 L 10.331784 29.413691 L 10.528586 29.534692 L 11.044743 29.768486 L 11.644010 29.963184 L 12.303444 30.122891 L 12.918049 30.226406 L 13.520489 30.280610 L 13.393889 31.185320 L 13.339797 32.127697 L 13.388275 33.104442 L 13.569385 34.112255 L 13.769761 34.779974 L 14.036773 35.444125 L 14.373870 36.099937 L 14.784503 36.742638 L 15.272120 37.367456 L 15.840174 37.969621 L 16.492113 38.544359 L 17.231388 39.086900 L 17.471117 39.285073 L 17.709513 39.407905 L 18.348824 39.600879 L 19.082455 39.691475 L 19.888241 39.675105 L 20.727055 39.527914 L 21.143511 39.391323 L 21.549001 39.203803 L 21.936926 38.952926 L 22.289662 38.630990 L 22.585838 38.237346 L 22.804079 37.771342 L 22.805934 37.771342 L 22.820427 37.721247 L 22.820427 37.719347 L 23.171776 36.281320 L 23.334849 35.755611 L 23.535803 35.394382 L 23.533948 35.394382 L 23.986837 34.876824 L 24.651161 33.972707 L 25.005346 33.382457 L 25.343669 32.703690 L 25.643225 31.939114 L 25.881108 31.091435 L 26.393369 31.294172 L 26.913423 31.434707 L 27.518693 31.528417 L 28.099920 31.567339 L 29.119318 31.516352 L 29.170030 31.507042 L 29.749276 31.419422 L 30.331021 31.383472 L 31.421202 31.438383 L 32.290520 31.631357 L 32.556749 31.720422 L 32.629188 31.746396 L 32.649106 31.753806 L 32.654576 31.755706 L 32.656431 31.757606 L 32.950330 31.963973 L 33.262032 32.113780 L 33.587544 32.212285 L 33.922872 32.264752 L 34.607008 32.252608 L 35.282497 32.119433 L 35.969440 31.867069 L 36.297200 31.688601 L 36.601843 31.472114 L 36.873890 31.215238 L 37.103860 30.915600 L 37.282273 30.570832 L 37.399649 30.178560 L 37.561162 29.238674 L 37.652937 28.327079 L 37.678665 27.446505 L 37.642042 26.599683 L 37.546758 25.789342 L 37.396508 25.018212 L 37.194985 24.289023 L 36.945881 23.604505 L 36.652890 22.967389 L 36.319704 22.380404 L 35.950016 21.846280 L 35.547520 21.367748 L 35.115909 20.947536 L 34.658876 20.588376 L 34.180113 20.292997 L 33.683313 20.064130 L 33.683313 20.062230 L 33.670637 20.058524 L 33.422520 19.965745 L 33.685427 19.389591 L 33.862896 18.799456 L 34.050965 17.651913 L 34.213962 16.544168 L 34.304519 16.291819 L 34.319012 16.263983 L 34.322629 16.254673 L 34.326245 16.245363 L 34.411369 16.178566 L 35.062077 15.483824 L 35.336794 15.072281 L 35.554159 14.586532 L 35.701852 14.025096 L 35.787254 13.374900 L 35.820855 12.598982 L 35.813144 11.660379 L 35.813144 11.658526 L 35.813144 11.656674 L 35.857300 11.124673 L 36.010849 10.700331 L 36.258426 10.327855 L 36.584664 9.951452 L 36.966134 9.536237 L 37.356184 9.045959 L 37.535705 8.750112 L 37.685145 8.413014 L 37.787371 8.038911 L 37.825253 7.632054 L 37.825253 7.607932 L 37.825253 7.606080 L 37.762687 7.130973 L 37.613879 6.688467 L 37.391445 6.289557 L 37.107995 5.945234 L 36.780566 5.659319 L 36.419870 5.422185 L 36.031513 5.227160 L 35.621098 5.067574 L 34.971470 4.881619 L 34.287700 4.751558 L 33.580154 4.670957 L 32.859201 4.633382 Z M 19.988557 18.082603 L 19.894904 16.823436 L 19.949564 15.601426 L 20.144810 14.422277 L 20.472911 13.291691 L 20.926141 12.215373 L 21.496769 11.199027 L 22.177067 10.248355 L 22.959307 9.369062 L 23.835758 8.566851 L 24.798693 7.847426 L 25.840384 7.216491 L 26.953100 6.679748 L 28.129113 6.242903 L 29.360695 5.911658 L 30.640116 5.691717 L 31.959648 5.588784 L 32.877087 5.584483 L 33.778986 5.641206 L 34.633291 5.767701 L 35.407944 5.972718 L 36.070890 6.265007 L 36.350456 6.446612 L 36.590073 6.653316 L 36.785735 6.886212 L 36.933436 7.146395 L 37.029167 7.434957 L 37.068923 7.752993 L 37.045714 8.013028 L 36.980180 8.253529 L 36.746696 8.691713 L 36.041968 9.507278 L 35.668958 9.947788 L 35.347672 10.452200 L 35.127227 11.052080 L 35.070169 11.397683 L 35.056740 11.778990 L 35.062859 12.678504 L 35.030947 13.393286 L 34.958612 13.956563 L 34.843464 14.401557 L 34.683113 14.761496 L 34.475166 15.069604 L 33.906922 15.663226 L 33.763781 15.790330 L 33.648064 15.962399 L 33.482550 16.419281 L 33.300717 17.628970 L 33.218983 18.293176 L 33.099760 18.937891 L 32.910339 19.518814 L 32.779084 19.771509 L 32.618013 19.991644 L 32.578549 20.206574 L 32.610043 20.380304 L 32.697391 20.518594 L 32.825489 20.627204 L 33.143515 20.778415 L 33.443285 20.880010 L 33.843312 21.065914 L 34.237226 21.313782 L 34.620655 21.621345 L 34.989223 21.986332 L 35.338558 22.406473 L 35.664285 22.879497 L 35.962031 23.403133 L 36.227422 23.975113 L 36.456085 24.593164 L 36.643645 25.255017 L 36.785728 25.958402 L 36.877962 26.701047 L 36.915972 27.480683 L 36.895385 28.295040 L 36.811827 29.141846 L 36.660923 30.018832 L 36.587834 30.252704 L 36.469582 30.468220 L 36.119482 30.840746 L 35.654415 31.129546 L 35.118172 31.327752 L 34.554546 31.428498 L 34.007328 31.424917 L 33.520311 31.310143 L 33.313062 31.208913 L 33.137286 31.077309 L 32.889331 30.946734 L 32.532385 30.823026 L 31.559762 30.630763 L 30.978206 30.579485 L 30.355901 30.569628 L 29.709907 30.609831 L 29.057285 30.708731 L 28.162612 30.751113 L 27.642307 30.717539 L 27.108854 30.636673 L 26.588875 30.500432 L 26.108993 30.300731 L 25.695832 30.029484 L 25.376013 29.678606 L 25.267878 30.706591 L 25.035972 31.622496 L 24.714741 32.427651 L 24.338633 33.123384 L 23.942096 33.711026 L 23.559576 34.191904 L 22.974377 34.838686 L 22.787817 35.098488 L 22.639834 35.386088 L 22.426126 36.028292 L 22.093467 37.465979 L 21.948472 37.775623 L 21.748493 38.039998 L 21.501787 38.261678 L 21.216615 38.443240 L 20.901233 38.587257 L 20.563902 38.696304 L 19.856421 38.819791 L 19.160242 38.834300 L 18.541433 38.760430 L 18.066060 38.618780 L 17.902810 38.528976 L 17.800194 38.429951 L 17.093717 37.926865 L 16.476712 37.398182 L 15.944330 36.847543 L 15.491721 36.278588 L 15.114036 35.694959 L 14.806427 35.100297 L 14.564043 34.498242 L 14.382037 33.892435 L 14.255558 33.286518 L 14.179757 32.684130 L 14.149786 32.088914 L 14.160795 31.504510 L 14.286357 30.382701 L 14.517650 29.347831 L 14.190804 29.461221 L 13.707590 29.485900 L 13.125491 29.437705 L 12.501990 29.332474 L 11.894572 29.186043 L 11.360719 29.014251 L 10.957917 28.832934 L 10.743648 28.657929 L 10.582390 28.515284 L 10.336808 28.402762 L 10.051237 28.346944 L 9.770013 28.374410 L 9.317823 28.430077 L 8.586581 28.401578 L 8.155164 28.310634 L 7.700601 28.144491 L 7.238432 27.885097 L 6.784195 27.514397 L 6.213760 27.086845 L 5.651039 26.748447 L 5.108096 26.490897 L 4.596991 26.305889 L 4.129787 26.185116 L 3.718545 26.120272 L 3.112195 26.125146 L 2.605202 26.159607 L 2.152758 26.048211 L 1.761601 25.809008 L 1.438468 25.460052 L 1.190097 25.019395 L 1.023224 24.505088 L 0.944587 23.935185 L 0.960923 23.327737 L 1.334532 22.406315 L 1.774767 21.551469 L 2.272622 20.761992 L 2.819090 20.036681 L 3.405167 19.374332 L 4.021846 18.773740 L 4.660122 18.233701 L 5.310990 17.753010 L 5.965444 17.330463 L 6.614478 16.964855 L 7.860265 16.399641 L 8.976307 16.047732 L 9.890558 15.899493 L 10.960743 15.803749 L 12.163391 15.755517 L 13.459707 15.783703 L 14.810899 15.917213 L 16.178173 16.184952 L 16.855719 16.378190 L 17.522737 16.615826 L 18.174379 16.901472 L 18.805796 17.238741 L 19.412138 17.631247 L 19.988557 18.082603 Z" fill="#23bef7" fill-opacity="0.984314" /></svg>