<?xml version='1.0' encoding='utf-8'?>
<svg xmlns="http://www.w3.org/2000/svg" width="250" height="250" viewBox="0.000000 0.000000 44.000000 44.000000"><path id="face_1" d="M 40.630575 7.553809 L 40.256890 7.421171 L 39.825399 7.372581 L 39.338829 7.403134 L 38.799904 7.507919 L 38.211351 7.682029 L 37.575897 7.920555 L 36.175186 8.571222 L 34.619582 9.420651 L 32.930891 10.429576 L 29.241483 12.768840 L 28.580242 12.282321 L 27.819119 11.861963 L 26.972754 11.507430 L 26.055792 11.218387 L 25.082874 10.994500 L 24.068644 10.835433 L 23.027744 10.740851 L 21.974816 10.710419 L 20.924504 10.743802 L 19.891450 10.840666 L 18.890296 11.000674 L 17.935686 11.223493 L 17.042262 11.508787 L 16.224666 11.856220 L 15.497541 12.265459 L 14.875531 12.736168 L 11.223133 10.482216 L 9.549572 9.505015 L 7.998973 8.675141 L 6.587239 8.028204 L 5.938416 7.784465 L 5.330273 7.599813 L 4.764798 7.478700 L 4.243978 7.425576 L 3.769802 7.444894 L 3.344257 7.541103 L 3.238312 7.714934 L 3.160247 7.932747 L 3.082735 8.489567 L 3.101668 9.190055 L 3.206995 10.012707 L 3.388661 10.936017 L 3.636614 11.938478 L 4.291173 14.094835 L 5.090250 16.309732 L 5.953423 18.411123 L 6.800272 20.226962 L 7.550374 21.585204 L 7.167137 22.637544 L 6.888296 23.665210 L 6.704061 24.664924 L 6.604639 25.633411 L 6.580239 26.567396 L 6.621069 27.463602 L 6.717338 28.318753 L 6.859253 29.129574 L 7.240859 30.605123 L 7.687552 31.864040 L 8.462869 33.627153 L 9.166791 34.622260 L 9.904749 35.410447 L 10.666108 36.004189 L 11.440233 36.415961 L 12.216487 36.658241 L 12.984237 36.743504 L 13.732847 36.684225 L 14.451680 36.492880 L 15.130103 36.181946 L 15.757480 35.763898 L 16.323175 35.251213 L 16.816553 34.656365 L 17.226979 33.991831 L 17.543818 33.270087 L 17.756433 32.503608 L 17.854191 31.704871 L 17.914734 31.166397 L 17.932738 30.499179 L 17.901689 29.732819 L 17.815073 28.896918 L 17.666374 28.021080 L 17.449078 27.134907 L 17.156671 26.268001 L 16.782638 25.449963 L 16.320464 24.710398 L 15.763635 24.078905 L 15.447689 23.812938 L 15.105636 23.585089 L 14.736662 23.399060 L 14.339953 23.258551 L 13.914694 23.167262 L 13.460071 23.128893 L 12.975269 23.147145 L 12.459475 23.225718 L 11.911874 23.368312 L 11.331651 23.578627 L 10.717993 23.860365 L 10.070085 24.217224 L 10.490380 23.055779 L 10.975810 21.969195 L 11.521868 20.957481 L 12.124046 20.020643 L 12.777836 19.158688 L 13.478729 18.371624 L 14.222219 17.659456 L 15.003796 17.022192 L 15.818953 16.459840 L 16.663183 15.972405 L 17.531977 15.559895 L 18.420827 15.222318 L 19.325225 14.959679 L 20.240663 14.771986 L 21.162634 14.659246 L 22.086629 14.621466 L 23.008141 14.658653 L 23.922661 14.770813 L 24.825682 14.957955 L 25.712696 15.220084 L 26.579194 15.557208 L 27.420669 15.969334 L 28.232613 16.456468 L 29.010518 17.018619 L 29.749876 17.655792 L 30.446179 18.367994 L 31.094919 19.155234 L 31.691588 20.017516 L 32.231678 20.954850 L 32.710682 21.967241 L 33.124091 23.054697 L 33.467397 24.217224 L 32.921080 23.871398 L 32.393392 23.598059 L 31.884340 23.393721 L 31.393929 23.254899 L 30.922166 23.178109 L 30.469056 23.159864 L 30.034606 23.196679 L 29.618820 23.285070 L 29.221706 23.421551 L 28.843268 23.602636 L 28.483514 23.824842 L 28.142448 24.084681 L 27.516408 24.703322 L 26.965194 25.430678 L 26.488854 26.238865 L 26.087436 27.100004 L 25.760987 27.986211 L 25.509555 28.869605 L 25.333186 29.722304 L 25.231930 30.516426 L 25.205832 31.224090 L 25.254940 31.817412 L 25.386087 32.611575 L 25.637126 33.369007 L 25.996927 34.078120 L 26.454362 34.727327 L 26.998303 35.305039 L 27.617623 35.799669 L 28.301191 36.199630 L 29.037881 36.493333 L 29.816564 36.669191 L 30.626111 36.715615 L 31.455394 36.621019 L 32.293286 36.373814 L 33.128657 35.962413 L 33.950379 35.375228 L 34.747324 34.600670 L 35.508364 33.627153 L 35.880804 32.954482 L 36.207239 32.229552 L 36.488865 31.461195 L 36.726880 30.658245 L 36.922480 29.829536 L 37.076862 28.983899 L 37.266761 27.277176 L 37.306153 25.608743 L 37.204612 24.049264 L 37.103984 23.332464 L 36.971715 22.669402 L 36.808999 22.068911 L 36.617036 21.539824 L 37.282829 20.221601 L 38.073040 18.347250 L 38.902017 16.133403 L 39.684108 13.796690 L 40.333661 11.553743 L 40.581970 10.535129 L 40.765025 9.621194 L 40.872119 8.839015 L 40.892547 8.215672 L 40.815601 7.778244 L 40.737267 7.637710 L 40.630575 7.553809 Z" fill="#22cccc" fill-opacity="1" /><path id="face_3" d="M 16.097710 20.546565 L 16.552203 20.059323 L 17.026307 19.621025 L 17.518749 19.231554 L 18.028252 18.890792 L 18.553543 18.598621 L 19.093347 18.354923 L 19.646390 18.159582 L 20.211395 18.012478 L 20.787090 17.913494 L 21.372199 17.862513 L 21.965447 17.859417 L 22.565560 17.904088 L 23.171263 17.996408 L 23.781281 18.136259 L 24.394341 18.323525 L 25.009166 18.558086 L 25.806474 18.933656 L 26.534816 19.376717 L 27.199271 19.907582 L 27.804917 20.546565 L 27.205223 20.746661 L 26.630101 21.034545 L 26.081435 21.401602 L 25.561108 21.839218 L 25.071006 22.338775 L 24.613010 22.891658 L 24.189006 23.489252 L 23.800877 24.122942 L 23.450508 24.784111 L 23.139781 25.464145 L 22.870580 26.154427 L 22.644791 26.846342 L 22.464296 27.531274 L 22.330979 28.200609 L 22.246724 28.845730 L 22.213415 29.458021 L 22.197442 30.840062 L 22.249453 32.228000 L 22.333049 32.912713 L 22.472158 33.585140 L 22.679618 34.240695 L 22.968268 34.874790 L 23.510327 35.747732 L 24.156244 36.546835 L 24.894223 37.259198 L 25.712472 37.871923 L 26.599195 38.372107 L 27.542597 38.746850 L 28.530884 38.983254 L 29.552262 39.068416 L 30.657430 39.070359 L 31.677251 39.019712 L 32.682985 38.847514 L 33.202837 38.694283 L 33.745889 38.484803 L 34.289368 38.220627 L 34.815482 37.907306 L 35.810376 37.162064 L 36.720087 36.306738 L 37.534131 35.398993 L 38.032298 34.796462 L 38.460903 34.151522 L 38.825165 33.474346 L 39.130303 32.775109 L 39.381537 32.063986 L 39.584084 31.351150 L 39.863997 29.961038 L 40.011795 28.686170 L 40.069228 27.607939 L 40.080013 26.366969 L 40.036550 23.958473 L 39.902850 22.773800 L 39.777405 22.264262 L 39.601240 21.839599 L 40.047168 21.044312 L 40.437563 20.163677 L 41.075999 18.449751 L 41.749054 16.545064 L 42.523674 14.168101 L 42.879245 12.946520 L 43.176416 11.779672 L 43.387258 10.725160 L 43.483840 9.840585 L 43.483246 8.693415 L 43.360488 7.669209 L 43.246349 7.207241 L 43.093329 6.780844 L 42.898650 6.391628 L 42.659530 6.041202 L 42.373192 5.731177 L 42.036855 5.463162 L 41.647739 5.238768 L 41.203064 5.059604 L 40.700052 4.927281 L 40.135921 4.843408 L 39.507893 4.809595 L 38.813188 4.827453 L 37.969709 4.912489 L 37.123588 5.085432 L 36.281194 5.333115 L 35.448895 5.642371 L 34.633059 6.000034 L 33.840054 6.392937 L 32.348013 7.231799 L 30.615521 8.214025 L 29.599877 8.748631 L 28.940691 9.035058 L 28.266894 8.763581 L 27.491996 8.528977 L 26.632022 8.331139 L 25.702998 8.169959 L 24.720950 8.045331 L 23.701903 7.957145 L 21.616915 7.889675 L 19.576238 7.966688 L 18.612581 8.059107 L 17.708078 8.187325 L 16.878755 8.351233 L 16.140638 8.550725 L 15.509753 8.785693 L 15.002124 9.056029 L 11.030410 6.815931 L 10.203070 6.376750 L 9.331336 5.971663 L 8.424546 5.611011 L 7.492037 5.305134 L 6.543147 5.064372 L 5.587213 4.899067 L 4.633573 4.819559 L 3.691563 4.836190 L 3.130653 4.907247 L 2.644204 5.030084 L 2.226981 5.200908 L 1.873751 5.415926 L 1.579279 5.671345 L 1.338330 5.963370 L 1.145670 6.288210 L 0.996065 6.642070 L 0.805082 7.421680 L 0.723507 8.271851 L 0.721077 10.062497 L 0.806905 11.088939 L 0.962456 12.145768 L 1.178332 13.218652 L 1.445133 14.293255 L 2.093917 16.390287 L 2.833617 18.322195 L 3.421598 19.720507 L 3.959999 20.896361 L 4.486604 21.881536 L 4.301174 22.299933 L 4.145927 22.895678 L 3.926144 24.389630 L 3.827583 25.904223 L 3.850571 26.980287 L 3.900412 28.052294 L 4.014801 29.129367 L 4.194111 30.201377 L 4.438717 31.258196 L 4.748990 32.289695 L 5.125307 33.285747 L 5.568039 34.236223 L 6.077562 35.130994 L 6.654248 35.959933 L 7.298471 36.712911 L 8.010605 37.379799 L 8.791024 37.950471 L 9.640101 38.414796 L 10.558210 38.762648 L 11.545726 38.983897 L 12.603020 39.068416 L 14.369367 39.028447 L 15.252623 38.916809 L 16.097710 38.701474 L 16.697982 38.461532 L 17.257902 38.167145 L 17.777703 37.822513 L 18.257619 37.431837 L 18.697881 36.999317 L 19.098723 36.529153 L 19.460377 36.025545 L 19.783078 35.492695 L 20.067056 34.934801 L 20.312547 34.356064 L 20.519782 33.760685 L 20.688994 33.152864 L 20.914282 31.916696 L 20.990274 30.681163 L 20.990274 29.108552 L 20.935953 28.112487 L 20.784388 27.129384 L 20.538917 26.167127 L 20.202878 25.233598 L 19.779607 24.336681 L 19.272444 23.484260 L 18.684725 22.684219 L 18.019789 21.944440 L 17.151795 21.106588 L 16.695356 20.802332 L 16.097710 20.546565 Z M 13.882976 21.298556 L 14.584917 21.413248 L 15.242925 21.629426 L 15.856841 21.937948 L 16.426503 22.329669 L 16.951752 22.795448 L 17.432427 23.326140 L 17.868368 23.912603 L 18.259415 24.545692 L 18.605407 25.216264 L 18.906185 25.915177 L 19.161586 26.633287 L 19.371453 27.361450 L 19.535623 28.090523 L 19.653938 28.811364 L 19.726236 29.514828 L 19.752357 30.191772 L 19.694105 31.224099 L 19.527829 32.307852 L 19.383144 32.931351 L 19.187043 33.586304 L 18.931739 34.255489 L 18.609442 34.921685 L 18.212364 35.567670 L 17.732717 36.176224 L 17.162712 36.730124 L 16.494562 37.212150 L 15.720477 37.605081 L 14.832669 37.891694 L 14.286524 37.968868 L 13.548246 38.016587 L 12.784481 38.029221 L 12.161879 38.001138 L 11.234189 37.837104 L 10.378355 37.535015 L 9.592797 37.107825 L 8.875936 36.568491 L 8.226191 35.929965 L 7.641983 35.205204 L 7.121732 34.407162 L 6.663857 33.548793 L 6.266780 32.643053 L 5.928919 31.702896 L 5.648696 30.741277 L 5.424530 29.771151 L 5.254841 28.805473 L 5.138049 27.857196 L 5.072575 26.939277 L 5.056839 26.064670 L 5.134895 25.229938 L 5.313238 23.929186 L 5.524017 22.621152 L 5.699382 21.764576 L 4.825373 19.858130 L 4.071842 18.121146 L 3.172541 15.875418 L 2.764294 14.728299 L 2.402157 13.566638 L 2.100010 12.391655 L 1.871734 11.204571 L 1.731209 10.006605 L 1.692315 8.798979 L 1.744275 7.838799 L 1.906763 7.120854 L 2.028827 6.842468 L 2.177770 6.612338 L 2.353341 6.426362 L 2.555291 6.280441 L 3.037318 6.092354 L 3.621847 6.015270 L 4.306869 6.016380 L 5.090378 6.062876 L 5.982683 6.211117 L 6.917251 6.474312 L 7.874118 6.828403 L 8.833323 7.249330 L 10.678896 8.195464 L 12.294271 9.120249 L 14.765590 10.495363 L 17.942999 9.630400 L 19.219728 9.403239 L 20.491326 9.306482 L 23.062159 9.295007 L 24.078323 9.334256 L 25.116001 9.450126 L 26.141764 9.643777 L 27.122182 9.916366 L 29.138072 10.638345 L 31.535252 9.261467 L 33.208494 8.262018 L 35.024885 7.288385 L 35.962197 6.858000 L 36.905818 6.490171 L 37.845923 6.203597 L 38.772685 6.016979 L 39.255226 5.969060 L 39.741573 5.966919 L 40.219646 6.018438 L 40.677364 6.131499 L 41.102646 6.313983 L 41.483411 6.573771 L 41.807578 6.918745 L 42.063067 7.356786 L 42.212311 7.820734 L 42.292547 8.354333 L 42.314529 8.935220 L 42.289016 9.541034 L 42.138531 10.737997 L 41.927146 11.766325 L 39.973038 17.944621 L 39.306224 19.668586 L 38.768105 20.958443 L 38.356089 21.764573 L 38.479014 22.085769 L 38.587831 22.575309 L 38.760327 23.884170 L 38.867951 25.340649 L 38.905076 26.594236 L 38.793598 28.341073 L 38.617289 29.836903 L 38.365103 31.124464 L 38.025993 32.246494 L 37.588913 33.245730 L 37.042816 34.164910 L 36.376657 35.046772 L 35.579387 35.934054 L 35.027250 36.430175 L 34.429231 36.863960 L 33.792156 37.234306 L 33.122852 37.540108 L 32.428146 37.780262 L 31.714863 37.953664 L 30.989830 38.059210 L 30.259874 38.095796 L 29.531821 38.062317 L 28.812498 37.957670 L 28.108731 37.780750 L 27.427346 37.530454 L 26.775170 37.205677 L 26.159030 36.805314 L 25.585752 36.328263 L 25.062162 35.773418 L 24.545832 35.092595 L 24.147994 34.430329 L 23.853752 33.773730 L 23.648213 33.109911 L 23.516483 32.425986 L 23.443668 31.709065 L 23.415205 30.124691 L 23.491968 29.144838 L 23.693035 28.089935 L 24.008332 27.000776 L 24.427783 25.918153 L 24.941317 24.882861 L 25.538857 23.935693 L 26.210329 23.117441 L 26.570642 22.769407 L 26.945660 22.468899 L 27.663831 22.034653 L 28.413446 21.720883 L 29.196160 21.493831 L 30.013626 21.319736 L 29.657738 20.722504 L 29.270063 20.167435 L 28.852826 19.654163 L 28.408248 19.182319 L 27.938551 18.751535 L 27.445959 18.361445 L 26.932694 18.011681 L 26.400977 17.701876 L 25.853032 17.431661 L 25.291082 17.200670 L 24.134052 16.854888 L 22.947670 16.661589 L 21.749713 16.617834 L 20.557962 16.720682 L 19.390196 16.967194 L 18.264197 17.354429 L 17.197742 17.879448 L 16.208613 18.539310 L 15.748602 18.918888 L 15.314589 19.331075 L 14.908798 19.775503 L 14.533450 20.251804 L 14.190769 20.759611 L 13.882976 21.298556 Z" fill="#22cccc" fill-opacity="1" /></svg>