<?xml version='1.0' encoding='utf-8'?>
<svg xmlns="http://www.w3.org/2000/svg" width="250" height="250" viewBox="0 0 43.0001 43.0001" fill="none"><g transform="translate(-41.5 -24)"><path d="M 61.073,25.131 A 20.315,20.315 0.0 0,0 44.563,33.576 L 47.753,35.816 A 11.15,11.15 0.0 0,1 50.418,34.709 L 51.08,30.940000000000005 L 55.625,30.940000000000005 L 56.287,34.71000000000001 C 57.22,34.96200000000001 58.112,35.333000000000006 58.952,35.81600000000001 L 62.077,33.62200000000001 L 65.289,36.845000000000006 L 63.103,39.98100000000001 C 63.584,40.82100000000001 63.953,41.71500000000001 64.206,42.65400000000001 L 67.962,43.31900000000001 L 67.962,47.87900000000001 L 64.206,48.54300000000001 A 11.289,11.289 0.0 0,1 63.103,51.21700000000001 L 65.289,54.35200000000001 L 62.077,57.57500000000001 L 58.952,55.38200000000001 A 11.11,11.11 0.0 0,1 56.287,56.488000000000014 L 55.625,60.25800000000002 L 51.08,60.25800000000002 L 50.418,56.488000000000014 A 11.203,11.203 0.0 0,1 47.753,55.38200000000001 L 44.563,57.622000000000014 A 20.315,20.315 0.0 0,0 61.07300000000001,66.06600000000002 C 72.32100000000001,66.06600000000002 81.47300000000001,56.88300000000002 81.47300000000001,45.597000000000016 C 81.47300000000001,34.311000000000014 72.32100000000001,25.131000000000014 61.073000000000015,25.131000000000014 L 61.073,25.131 M 61.255,24.0 C 53.605000000000004,24.0 46.875,27.908 43.0,33.816 L 47.765,37.114000000000004 A 10.227,10.227 0.0 0,1 51.485,35.592000000000006 L 52.12,32.03900000000001 L 54.797999999999995,32.03900000000001 L 55.434,35.592000000000006 A 10.22,10.22 0.0 0,1 59.153999999999996,37.114000000000004 L 62.144,35.045 L 64.038,36.917 L 61.946,39.874 A 9.985,9.985 0.0 0,1 63.485,43.552 L 67.078,44.18 L 67.078,46.828 L 63.485,47.456 A 9.985,9.985 0.0 0,1 61.945,51.135000000000005 L 64.038,54.09100000000001 L 62.144999999999996,55.96300000000001 L 59.154999999999994,53.894000000000005 A 10.227,10.227 0.0 0,1 55.434999999999995,55.41700000000001 L 54.797999999999995,58.96900000000001 L 52.12,58.96900000000001 L 51.485,55.41700000000001 A 10.227,10.227 0.0 0,1 47.765,53.894000000000005 L 43.0,57.184 A 21.786,21.786 0.0 0,0 61.255,67.0 C 73.263,67.0 83.0,57.373 83.0,45.5 C 83.0,33.627 73.266,24.0 61.255,24.0 M 61.255,66.437 C 57.910000000000004,66.437 54.577000000000005,65.64699999999999 51.620000000000005,64.15299999999999 A 21.212,21.212 0.0 0,1 44.117000000000004,57.79899999999999 L 43.777,57.334999999999994 L 44.252,57.00699999999999 L 47.77,54.57199999999999 L 48.085,54.749999999999986 A 10.76,10.76 0.0 0,0 50.639,55.795999999999985 L 50.99,55.88899999999999 L 51.054,56.24199999999999 L 51.639,59.52599999999999 L 55.274,59.52599999999999 L 55.86,56.24199999999999 L 55.923,55.88899999999999 L 56.274,55.795999999999985 A 10.76,10.76 0.0 0,0 58.828,54.749999999999986 L 59.143,54.57199999999999 L 62.203,56.68999999999999 L 64.773,54.148999999999994 L 62.63099999999999,51.123999999999995 L 62.81099999999999,50.812 A 10.51,10.51 0.0 0,0 63.86899999999999,48.287 L 63.962999999999994,47.94 L 64.32,47.876999999999995 L 67.642,47.297999999999995 L 67.642,43.705 L 64.32,43.125 L 63.962999999999994,43.062 L 63.86899999999999,42.716 A 10.508,10.508 0.0 0,0 62.81099999999999,40.191 L 62.63099999999999,39.879000000000005 L 64.773,36.854000000000006 L 62.202999999999996,34.31300000000001 L 59.142999999999994,36.43000000000001 L 58.827999999999996,36.25300000000001 A 10.768,10.768 0.0 0,0 56.273999999999994,35.20600000000001 L 55.92399999999999,35.11300000000001 L 55.85999999999999,34.76100000000001 L 55.273999999999994,31.47600000000001 L 51.638999999999996,31.47600000000001 L 51.053999999999995,34.76100000000001 L 50.989999999999995,35.11300000000001 L 50.63999999999999,35.20600000000001 C 49.745999999999995,35.44400000000001 48.88699999999999,35.796000000000014 48.084999999999994,36.25300000000001 L 47.769999999999996,36.431000000000004 L 44.251999999999995,33.996 L 43.776999999999994,33.668 L 44.117,33.202999999999996 A 21.212,21.212 0.0 0,1 51.62,26.849999999999994 A 21.46,21.46 0.0 0,1 61.254999999999995,24.565999999999995 C 72.93199999999999,24.565999999999995 82.431,33.958 82.431,45.503 C 82.431,57.048 72.931,66.44 61.254999999999995,66.44 L 61.254999999999995,66.437 L 61.255,66.437" fill="#881144" fill-rule="evenodd" clip-rule="evenodd" /></g></svg>